<svg xmlns="http://www.w3.org/2000/svg" xmlns:xlink="http://www.w3.org/1999/xlink" width="851" zoomAndPan="magnify" viewBox="0 0 638.25 236.249991" height="315" preserveAspectRatio="xMidYMid meet" version="1.0"><path fill="#ffffff" d="M 446.699219 38.441406 C 447.386719 38.4375 448.074219 38.4375 448.78125 38.4375 C 450.234375 38.433594 451.683594 38.4375 453.136719 38.445312 C 455.332031 38.453125 457.527344 38.445312 459.722656 38.433594 C 479.433594 38.414062 479.433594 38.414062 485.660156 44.515625 C 491.5 51.742188 492.335938 59.46875 491.5 68.46875 C 490.304688 74.390625 486.988281 79.507812 482.152344 83.078125 C 482.476562 83.226562 482.804688 83.375 483.136719 83.53125 C 488.546875 86.246094 491.945312 90.03125 494.019531 95.71875 C 496.609375 104.5625 495.476562 114.53125 491.171875 122.601562 C 488.128906 127.578125 484.398438 130.351562 478.9375 132.300781 C 474.0625 133.34375 469.226562 133.421875 464.257812 133.441406 C 463.5625 133.445312 462.867188 133.449219 462.152344 133.453125 C 460.691406 133.457031 459.230469 133.460938 457.765625 133.464844 C 455.539062 133.46875 453.308594 133.488281 451.078125 133.503906 C 449.652344 133.507812 448.230469 133.511719 446.804688 133.515625 C 446.140625 133.523438 445.480469 133.527344 444.796875 133.535156 C 436.898438 133.515625 436.898438 133.515625 433.941406 130.738281 C 430.355469 126.246094 430.566406 120.53125 430.585938 115.058594 C 430.585938 114.359375 430.582031 113.660156 430.582031 112.941406 C 430.578125 111.039062 430.578125 109.136719 430.582031 107.234375 C 430.585938 105.234375 430.582031 103.234375 430.582031 101.234375 C 430.578125 97.875 430.582031 94.519531 430.585938 91.160156 C 430.59375 87.292969 430.589844 83.421875 430.585938 79.550781 C 430.578125 76.214844 430.578125 72.882812 430.582031 69.546875 C 430.582031 67.558594 430.582031 65.574219 430.578125 63.585938 C 430.578125 61.371094 430.582031 59.15625 430.585938 56.9375 C 430.585938 56.289062 430.582031 55.636719 430.582031 54.96875 C 430.605469 50.078125 430.773438 45.226562 433.941406 41.257812 C 437.363281 38.046875 442.34375 38.417969 446.699219 38.441406 Z M 450.019531 56.785156 C 450.019531 63.148438 450.019531 69.511719 450.019531 76.066406 C 452.894531 76.085938 452.894531 76.085938 455.824219 76.101562 C 456.417969 76.109375 457.011719 76.113281 457.621094 76.117188 C 464.851562 76.328125 464.851562 76.328125 471.050781 73.144531 C 473.398438 70.015625 473.179688 66.375 472.804688 62.628906 C 472.050781 60.367188 471.523438 59.472656 469.628906 58.0625 C 467.0625 56.875 464.941406 56.714844 462.113281 56.726562 C 461.480469 56.730469 460.84375 56.730469 460.191406 56.734375 C 458.988281 56.742188 458.988281 56.742188 457.761719 56.75 C 455.207031 56.761719 452.652344 56.773438 450.019531 56.785156 Z M 450.019531 93.007812 C 450.019531 100.144531 450.019531 107.277344 450.019531 114.625 C 452.816406 114.664062 455.609375 114.699219 458.492188 114.738281 C 459.363281 114.753906 460.234375 114.769531 461.132812 114.785156 C 467.582031 114.960938 467.582031 114.960938 473.121094 112.046875 C 475.816406 108.992188 475.933594 106.3125 475.886719 102.40625 C 475.65625 99.839844 475.035156 97.925781 473.390625 95.929688 C 470.101562 93.257812 466.605469 92.933594 462.515625 92.953125 C 461.855469 92.953125 461.199219 92.957031 460.523438 92.957031 C 459.695312 92.960938 458.867188 92.96875 458.015625 92.972656 C 454.058594 92.992188 454.058594 92.992188 450.019531 93.007812 Z M 450.019531 93.007812 " fill-opacity="1" fill-rule="nonzero"/><path fill="#ffffff" d="M 248.136719 38.589844 C 248.761719 38.585938 249.382812 38.582031 250.027344 38.578125 C 250.695312 38.578125 251.367188 38.574219 252.054688 38.574219 C 252.75 38.574219 253.445312 38.570312 254.164062 38.570312 C 255.632812 38.566406 257.105469 38.566406 258.574219 38.566406 C 260.8125 38.5625 263.050781 38.554688 265.289062 38.542969 C 266.71875 38.539062 268.152344 38.539062 269.582031 38.539062 C 270.246094 38.535156 270.910156 38.53125 271.59375 38.527344 C 278.222656 38.546875 284.722656 39.300781 289.9375 43.765625 C 294.902344 49.011719 296.554688 55.507812 297.128906 62.519531 C 296.902344 69 295.222656 75.449219 290.550781 80.125 C 289.597656 80.953125 288.601562 81.730469 287.597656 82.492188 C 288.175781 82.945312 288.175781 82.945312 288.765625 83.40625 C 289.34375 83.875 289.921875 84.34375 290.519531 84.828125 C 290.890625 85.128906 291.265625 85.425781 291.652344 85.730469 C 297.074219 90.21875 299.597656 95.460938 300.339844 102.429688 C 300.835938 111.242188 299 119.371094 293.441406 126.3125 C 288.785156 131.488281 283.207031 132.839844 276.496094 133.324219 C 274.054688 133.40625 271.613281 133.417969 269.167969 133.421875 C 268.484375 133.421875 267.804688 133.425781 267.101562 133.425781 C 265.667969 133.429688 264.234375 133.429688 262.800781 133.429688 C 260.613281 133.433594 258.425781 133.441406 256.238281 133.453125 C 254.839844 133.457031 253.441406 133.457031 252.042969 133.457031 C 251.390625 133.460938 250.742188 133.464844 250.070312 133.46875 C 242.464844 133.449219 242.464844 133.449219 239.734375 131.25 C 239.332031 130.738281 239.332031 130.738281 238.921875 130.21875 C 238.648438 129.882812 238.371094 129.550781 238.089844 129.203125 C 236.53125 126.796875 236.039062 124.699219 236.027344 121.851562 C 236.023438 121.195312 236.015625 120.539062 236.011719 119.863281 C 236.011719 119.148438 236.011719 118.433594 236.015625 117.699219 C 236.007812 116.5625 236.007812 116.5625 236 115.40625 C 235.992188 113.335938 235.988281 111.261719 235.988281 109.191406 C 235.988281 107.894531 235.984375 106.601562 235.980469 105.304688 C 235.972656 100.78125 235.964844 96.253906 235.96875 91.730469 C 235.96875 87.519531 235.957031 83.308594 235.9375 79.097656 C 235.921875 75.476562 235.914062 71.859375 235.917969 68.238281 C 235.917969 66.078125 235.914062 63.917969 235.902344 61.757812 C 235.886719 59.347656 235.894531 56.933594 235.898438 54.523438 C 235.894531 53.8125 235.886719 53.101562 235.878906 52.371094 C 235.914062 48.007812 236.285156 44.632812 239.34375 41.273438 C 242.0625 38.804688 244.605469 38.601562 248.136719 38.589844 Z M 254.878906 56.785156 C 254.878906 63.148438 254.878906 69.511719 254.878906 76.066406 C 257.878906 76.101562 257.878906 76.101562 260.941406 76.140625 C 261.558594 76.148438 262.175781 76.160156 262.8125 76.171875 C 267.105469 76.195312 271.46875 76.0625 275.292969 73.949219 C 277.675781 71.199219 278.4375 68.515625 278.214844 64.890625 C 277.824219 62.261719 277.199219 60.507812 275.328125 58.539062 C 271.109375 56.414062 267.121094 56.582031 262.476562 56.675781 C 258.714844 56.730469 258.714844 56.730469 254.878906 56.785156 Z M 254.878906 93.007812 C 254.878906 100.144531 254.878906 107.277344 254.878906 114.625 C 257.675781 114.664062 260.472656 114.699219 263.351562 114.738281 C 264.222656 114.753906 265.097656 114.769531 265.996094 114.785156 C 272.691406 114.832031 272.691406 114.832031 278.46875 111.742188 C 280.742188 108.855469 281.410156 105.804688 281.027344 102.15625 C 280.496094 99.347656 279.796875 97.359375 277.664062 95.347656 C 274.25 93.3125 271.296875 92.933594 267.375 92.953125 C 266.71875 92.953125 266.0625 92.957031 265.382812 92.957031 C 264.554688 92.960938 263.730469 92.96875 262.875 92.972656 C 258.917969 92.992188 258.917969 92.992188 254.878906 93.007812 Z M 254.878906 93.007812 " fill-opacity="1" fill-rule="nonzero"/><path fill="#ffffff" d="M 520.128906 37.503906 C 523.242188 39.03125 524.425781 41.164062 525.59375 44.375 C 526.207031 46.5 526.21875 48.539062 526.207031 50.734375 C 526.210938 51.457031 526.210938 51.457031 526.21875 52.191406 C 526.230469 53.773438 526.230469 55.351562 526.230469 56.929688 C 526.238281 58.042969 526.246094 59.152344 526.253906 60.261719 C 526.273438 63.183594 526.285156 66.101562 526.292969 69.023438 C 526.308594 73.679688 526.332031 78.335938 526.367188 82.992188 C 526.375 84.601562 526.378906 86.214844 526.378906 87.824219 C 526.058594 100.417969 526.058594 100.417969 530.644531 111.707031 C 533.574219 114.15625 536.746094 114.820312 540.488281 114.75 C 543.621094 114.441406 545.789062 113.476562 548.0625 111.304688 C 551.351562 106.324219 551.761719 101.140625 551.769531 95.289062 C 551.773438 94.773438 551.777344 94.257812 551.78125 93.726562 C 551.785156 92.609375 551.789062 91.492188 551.796875 90.378906 C 551.800781 88.609375 551.8125 86.839844 551.824219 85.070312 C 551.863281 80.042969 551.894531 75.015625 551.914062 69.992188 C 551.925781 66.910156 551.945312 63.828125 551.972656 60.746094 C 551.980469 59.578125 551.984375 58.410156 551.988281 57.238281 C 551.988281 55.597656 552.003906 53.960938 552.019531 52.320312 C 552.015625 51.601562 552.015625 51.601562 552.015625 50.875 C 552.078125 46.328125 553.046875 41.976562 556.351562 38.671875 C 558.96875 37.085938 561.554688 37.128906 564.53125 37.503906 C 567.390625 38.882812 568.804688 40.617188 570.375 43.347656 C 570.90625 44.945312 571.035156 45.886719 571.039062 47.53125 C 571.042969 48.027344 571.046875 48.523438 571.050781 49.035156 C 571.050781 49.847656 571.050781 49.847656 571.054688 50.675781 C 571.058594 51.535156 571.058594 51.535156 571.0625 52.410156 C 571.070312 54.308594 571.074219 56.207031 571.078125 58.105469 C 571.082031 59.429688 571.085938 60.753906 571.085938 62.078125 C 571.09375 64.863281 571.097656 67.648438 571.097656 70.429688 C 571.101562 73.972656 571.117188 77.519531 571.132812 81.0625 C 571.144531 83.804688 571.148438 86.542969 571.148438 89.285156 C 571.148438 90.589844 571.152344 91.894531 571.160156 93.199219 C 571.230469 105.902344 570.5625 117.765625 561.59375 127.613281 C 555.347656 133.644531 548.316406 134.613281 540.03125 134.675781 C 539.296875 134.691406 538.5625 134.707031 537.804688 134.726562 C 529.964844 134.777344 522.6875 132.898438 516.667969 127.671875 C 508.890625 119.601562 507.195312 108.027344 507.179688 97.28125 C 507.179688 96.738281 507.175781 96.191406 507.171875 95.628906 C 507.164062 93.835938 507.160156 92.042969 507.15625 90.253906 C 507.15625 89.636719 507.152344 89.023438 507.152344 88.386719 C 507.144531 85.136719 507.136719 81.882812 507.136719 78.632812 C 507.132812 75.28125 507.117188 71.929688 507.101562 68.578125 C 507.089844 65.992188 507.085938 63.40625 507.085938 60.820312 C 507.085938 59.585938 507.078125 58.351562 507.074219 57.117188 C 507.0625 55.386719 507.0625 53.65625 507.066406 51.925781 C 507.0625 51.421875 507.054688 50.917969 507.050781 50.394531 C 507.082031 45.867188 508.117188 42.019531 511.367188 38.671875 C 514.113281 36.988281 517.007812 37.011719 520.128906 37.503906 Z M 520.128906 37.503906 " fill-opacity="1" fill-rule="nonzero"/><path fill="#ffffff" d="M 349.820312 38.199219 C 356.6875 43.175781 358.617188 51.542969 360.890625 59.320312 C 361.183594 60.304688 361.480469 61.289062 361.773438 62.273438 C 362.546875 64.863281 363.308594 67.453125 364.074219 70.042969 C 364.828125 72.601562 365.589844 75.152344 366.351562 77.707031 C 369.246094 87.425781 372.097656 97.15625 374.925781 106.894531 C 375.210938 107.867188 375.492188 108.84375 375.777344 109.816406 C 376.167969 111.160156 376.558594 112.503906 376.945312 113.84375 C 377.117188 114.433594 377.117188 114.433594 377.292969 115.039062 C 378.835938 120.390625 379.746094 125.3125 376.988281 130.402344 C 375.25 132.402344 373.578125 134.304688 370.859375 134.707031 C 368.078125 134.773438 366.34375 134.75 363.878906 133.359375 C 360.148438 128.898438 357.125 120.484375 357.125 114.625 C 348.445312 114.820312 339.769531 115.011719 330.832031 115.210938 C 329.800781 119.226562 329.800781 119.226562 328.789062 123.25 C 327.695312 127.375 326.308594 130.84375 323.25 133.890625 C 320.847656 135.113281 318.25 134.894531 315.640625 134.492188 C 313.136719 133.269531 311.585938 131.117188 310.382812 128.648438 C 308.988281 124.023438 309.84375 119.402344 311.117188 114.863281 C 311.347656 114.019531 311.347656 114.019531 311.578125 113.160156 C 314.023438 104.261719 316.671875 95.414062 319.304688 86.570312 C 319.929688 84.460938 320.554688 82.355469 321.175781 80.246094 C 327.046875 60.34375 327.046875 60.34375 329.921875 51.507812 C 330.179688 50.699219 330.179688 50.699219 330.441406 49.875 C 332.121094 44.832031 334.25 40.890625 338.867188 38.042969 C 342.183594 36.6875 346.496094 37.070312 349.820312 38.199219 Z M 343.683594 63.796875 C 342.226562 69.253906 340.769531 74.710938 339.320312 80.167969 C 339.027344 81.261719 338.738281 82.351562 338.445312 83.445312 C 337.949219 85.304688 337.457031 87.167969 336.964844 89.027344 C 336.816406 89.585938 336.667969 90.144531 336.515625 90.71875 C 336.382812 91.230469 336.246094 91.742188 336.109375 92.269531 C 335.992188 92.710938 335.875 93.152344 335.753906 93.609375 C 335.445312 94.851562 335.445312 94.851562 335.507812 96.515625 C 341.097656 96.515625 346.6875 96.515625 352.449219 96.515625 C 350.746094 89.171875 348.929688 81.867188 347.046875 74.570312 C 346.773438 73.515625 346.503906 72.464844 346.234375 71.410156 C 345.578125 68.871094 344.925781 66.335938 344.269531 63.796875 C 344.078125 63.796875 343.882812 63.796875 343.683594 63.796875 Z M 343.683594 63.796875 " fill-opacity="1" fill-rule="nonzero"/><path fill="#ffffff" d="M 56.234375 50.359375 C 56.425781 50.9375 56.621094 51.515625 56.820312 52.113281 C 57.503906 52.933594 58.195312 53.757812 58.898438 54.566406 C 59.828125 55.726562 60.570312 56.941406 61.347656 58.210938 C 64.65625 63.210938 69.222656 65.769531 74.929688 67.300781 C 75.304688 67.40625 75.675781 67.507812 76.0625 67.613281 C 80.644531 68.710938 85.25 68.707031 89.9375 68.71875 C 91.347656 68.726562 92.757812 68.753906 94.167969 68.785156 C 99.777344 68.839844 104.464844 68.144531 109.730469 66.207031 C 113.296875 65.039062 116.5 65.035156 120.0625 66.132812 C 122.328125 67.777344 124.015625 69.804688 125.761719 71.976562 C 125.984375 71.488281 125.984375 71.488281 126.214844 70.988281 C 128.8125 65.8125 132.164062 62.476562 137.699219 60.582031 C 140.660156 59.707031 140.660156 59.707031 142.121094 59.707031 C 142.121094 60.09375 142.121094 60.476562 142.121094 60.875 C 141.425781 61.5 140.699219 62.089844 139.964844 62.664062 C 137.738281 64.546875 136.449219 66.386719 135.171875 68.988281 C 134.488281 70.292969 133.683594 71.40625 132.769531 72.558594 C 133.15625 72.367188 133.542969 72.175781 133.941406 71.976562 C 133.320312 96.691406 133.320312 96.691406 131.019531 101.773438 C 129.515625 100.269531 129.382812 99.082031 128.902344 97.027344 C 128.75 96.386719 128.597656 95.746094 128.441406 95.085938 C 128.328125 94.59375 128.214844 94.101562 128.097656 93.59375 C 127.710938 95.714844 127.324219 97.835938 126.929688 100.019531 C 125.335938 99.222656 125.242188 98.363281 124.554688 96.734375 C 122.941406 93.378906 120.730469 91.433594 117.582031 89.503906 C 117.003906 89.3125 116.425781 89.117188 115.828125 88.917969 C 116.171875 89.160156 116.519531 89.402344 116.875 89.648438 C 121.226562 92.832031 123.714844 95.964844 125.175781 101.1875 C 125.332031 103.132812 125.332031 103.132812 125.320312 105.097656 C 125.328125 106.074219 125.328125 106.074219 125.332031 107.074219 C 125.175781 108.785156 125.175781 108.785156 124.007812 110.535156 C 123.777344 109.875 123.550781 109.210938 123.3125 108.527344 C 120.761719 101.921875 117.613281 98.230469 111.109375 95.050781 C 103.585938 91.949219 95.828125 91.039062 87.785156 90.671875 C 88.222656 90.84375 88.660156 91.011719 89.113281 91.1875 C 112.074219 100.167969 112.074219 100.167969 115.984375 107.917969 C 118.648438 114.203125 118.496094 119.773438 116.996094 126.3125 C 117.332031 126.113281 117.664062 125.917969 118.011719 125.714844 C 120.125 124.800781 121.765625 125.355469 124.007812 125.726562 C 124.128906 125.269531 124.25 124.8125 124.371094 124.339844 C 125.457031 121.480469 126.964844 118.910156 128.679688 116.378906 C 128.875 116.378906 129.066406 116.378906 129.265625 116.378906 C 129.386719 117.03125 129.507812 117.679688 129.632812 118.351562 C 133.070312 131.703125 148.566406 142.664062 158.851562 150.609375 C 159.332031 150.980469 159.8125 151.351562 160.304688 151.734375 C 161.265625 152.472656 162.230469 153.214844 163.195312 153.949219 C 163.632812 154.289062 164.074219 154.625 164.527344 154.976562 C 164.921875 155.277344 165.320312 155.582031 165.726562 155.894531 C 166.65625 156.691406 166.65625 156.691406 167.242188 157.863281 C 163.800781 156.90625 160.847656 155.203125 157.746094 153.480469 C 157.183594 153.167969 156.617188 152.855469 156.035156 152.535156 C 154.875 151.894531 153.714844 151.25 152.554688 150.609375 C 151.023438 149.761719 149.488281 148.921875 147.949219 148.085938 C 139.351562 143.398438 130.648438 138.320312 124.007812 130.984375 C 123.53125 128.757812 123.53125 128.757812 123.421875 126.894531 C 123.039062 127.089844 122.652344 127.28125 122.253906 127.480469 C 122.476562 130.597656 123.636719 132.3125 125.761719 134.492188 C 126.988281 135.492188 128.1875 136.40625 129.484375 137.304688 C 129.839844 137.550781 130.195312 137.800781 130.5625 138.058594 C 137.078125 142.558594 144.011719 146.363281 150.941406 150.171875 C 152.699219 151.140625 154.429688 152.140625 156.140625 153.1875 C 152.113281 154.53125 145.871094 150.429688 142.113281 148.585938 C 140.160156 147.605469 138.21875 146.601562 136.277344 145.59375 C 135.921875 145.410156 135.566406 145.226562 135.199219 145.039062 C 130.445312 142.601562 125.804688 139.972656 121.195312 137.265625 C 120.683594 136.96875 120.167969 136.671875 119.640625 136.367188 C 119.160156 136.082031 118.683594 135.796875 118.191406 135.503906 C 117.761719 135.253906 117.335938 135 116.894531 134.742188 C 115.6875 133.796875 115.234375 132.972656 114.660156 131.570312 C 114.378906 132.015625 114.097656 132.457031 113.804688 132.914062 C 113.253906 133.785156 113.253906 133.785156 112.6875 134.675781 C 112.320312 135.25 111.957031 135.828125 111.578125 136.421875 C 110.863281 137.539062 110.136719 138.644531 109.402344 139.75 C 109.015625 139.75 108.628906 139.75 108.234375 139.75 C 108.296875 139.058594 108.296875 139.058594 108.359375 138.355469 C 109.242188 128 109.441406 118.652344 102.511719 110.269531 C 100.875 108.394531 99.113281 106.8125 97.09375 105.351562 C 96.738281 105.089844 96.378906 104.828125 96.011719 104.554688 C 91.96875 101.691406 87.65625 99.273438 83.367188 96.808594 C 75.652344 92.367188 68.152344 87.945312 62.660156 80.738281 C 62.46875 81.320312 62.277344 81.898438 62.078125 82.492188 C 61.113281 81.644531 60.152344 80.789062 59.191406 79.9375 C 58.65625 79.460938 58.121094 78.988281 57.570312 78.5 C 56.234375 77.234375 56.234375 77.234375 55.648438 76.066406 C 53.101562 75.902344 51.265625 76.089844 48.859375 76.980469 C 46.828125 77.703125 45.4375 78.171875 43.382812 77.234375 C 42.722656 76.03125 42.722656 76.03125 42.210938 74.898438 C 46.195312 73.851562 49.789062 73.589844 53.898438 73.730469 C 53.707031 73.363281 53.515625 72.992188 53.320312 72.613281 C 51.746094 69.53125 50.375 66.480469 49.222656 63.210938 C 48.859375 66.148438 48.5625 69.011719 48.640625 71.976562 C 46.421875 69.558594 45.746094 66.726562 45.695312 63.527344 C 45.960938 59.394531 47.023438 56.023438 50.027344 53.097656 C 54.285156 50.359375 54.285156 50.359375 56.234375 50.359375 Z M 55.066406 52.695312 C 53.605469 57.765625 53.242188 63.066406 55.648438 67.886719 C 55.648438 62.875 55.648438 57.859375 55.648438 52.695312 C 55.457031 52.695312 55.265625 52.695312 55.066406 52.695312 Z M 56.820312 56.785156 C 56.507812 61.355469 57.328125 65.421875 59.15625 69.640625 C 60.332031 71.007812 60.332031 71.007812 61.492188 71.976562 C 61.242188 71.226562 61.242188 71.226562 60.984375 70.457031 C 57.777344 60.789062 57.777344 60.789062 57.402344 56.785156 C 57.210938 56.785156 57.015625 56.785156 56.820312 56.785156 Z M 62.660156 65.550781 C 63.246094 66.71875 63.246094 66.71875 63.246094 66.71875 Z M 55.648438 67.886719 C 56.234375 69.640625 56.234375 69.640625 56.234375 69.640625 Z M 65.582031 69.054688 C 65.777344 69.441406 65.96875 69.824219 66.167969 70.222656 C 66.550781 70.03125 66.9375 69.835938 67.335938 69.640625 C 66.757812 69.445312 66.179688 69.253906 65.582031 69.054688 Z M 95.378906 70.222656 C 97.007812 70.828125 97.640625 70.832031 99.324219 70.261719 C 99.757812 70.054688 100.191406 69.851562 100.636719 69.640625 C 98.4375 68.90625 97.5 69.421875 95.378906 70.222656 Z M 56.234375 69.640625 C 56.820312 71.390625 56.820312 71.390625 56.820312 71.390625 Z M 67.335938 70.222656 C 70.152344 73.269531 74.5625 73.535156 78.542969 73.898438 C 83.742188 74.035156 90.945312 73.765625 95.378906 70.808594 C 94.3125 70.933594 94.3125 70.933594 93.226562 71.0625 C 92.824219 71.109375 92.425781 71.15625 92.011719 71.207031 C 90.691406 71.375 90.691406 71.375 89.359375 71.6875 C 86.589844 72.195312 83.800781 72.109375 80.992188 72.121094 C 80.390625 72.132812 79.789062 72.144531 79.167969 72.160156 C 74.960938 72.179688 71.328125 71.535156 67.335938 70.222656 Z M 56.820312 71.390625 C 57.402344 72.558594 57.402344 72.558594 57.402344 72.558594 Z M 61.492188 71.976562 C 62.257812 73.800781 62.257812 73.800781 63.828125 74.898438 C 63.066406 73.074219 63.066406 73.074219 61.492188 71.976562 Z M 57.402344 72.558594 C 57.988281 73.730469 57.988281 73.730469 57.988281 73.730469 Z M 106.480469 74.3125 C 110.144531 74.121094 113.804688 73.925781 117.582031 73.730469 C 117.582031 73.535156 117.582031 73.34375 117.582031 73.144531 C 116.058594 73.113281 114.539062 73.089844 113.015625 73.070312 C 112.371094 73.058594 112.371094 73.058594 111.710938 73.042969 C 109.453125 73.023438 108.402344 73.03125 106.480469 74.3125 Z M 101.222656 75.480469 C 103.421875 76.214844 104.359375 75.699219 106.480469 74.898438 C 104.367188 74.113281 103.222656 74.535156 101.222656 75.480469 Z M 58.570312 74.898438 C 59.15625 76.066406 59.15625 76.066406 59.15625 76.066406 Z M 63.828125 74.898438 C 64.023438 75.28125 64.214844 75.667969 64.414062 76.066406 C 64.800781 75.875 65.183594 75.679688 65.582031 75.480469 C 65.003906 75.289062 64.425781 75.097656 63.828125 74.898438 Z M 129.851562 74.898438 C 130.433594 76.066406 130.433594 76.066406 130.433594 76.066406 Z M 59.15625 76.066406 C 59.347656 76.644531 59.542969 77.222656 59.738281 77.820312 C 59.738281 77.242188 59.738281 76.660156 59.738281 76.066406 C 59.546875 76.066406 59.355469 76.066406 59.15625 76.066406 Z M 129.265625 76.066406 C 127.976562 78.417969 127.246094 80.410156 126.929688 83.078125 C 128.257812 82.582031 128.257812 82.582031 128.59375 81.03125 C 128.742188 80.441406 128.894531 79.851562 129.046875 79.242188 C 129.199219 78.652344 129.351562 78.058594 129.507812 77.453125 C 129.621094 76.992188 129.734375 76.535156 129.851562 76.066406 C 129.65625 76.066406 129.464844 76.066406 129.265625 76.066406 Z M 97.714844 76.648438 C 97.332031 77.035156 96.945312 77.421875 96.546875 77.820312 C 97.511719 77.625 98.476562 77.433594 99.46875 77.234375 C 98.890625 77.042969 98.3125 76.847656 97.714844 76.648438 Z M 123.421875 76.648438 C 124.195312 77.613281 124.964844 78.578125 125.761719 79.570312 C 125.605469 78.410156 125.605469 78.410156 125.175781 77.234375 C 124.597656 77.042969 124.019531 76.847656 123.421875 76.648438 Z M 67.335938 77.234375 C 68.964844 79.195312 71.160156 80.195312 73.398438 81.324219 C 73.769531 81.523438 74.144531 81.726562 74.53125 81.929688 C 80.863281 85.140625 87.699219 85.6875 94.683594 86.035156 C 100.804688 86.386719 106.84375 86.839844 112.90625 87.75 C 108.386719 84.738281 102.015625 85.085938 96.765625 84.757812 C 95.636719 84.679688 95.636719 84.679688 94.484375 84.605469 C 92.640625 84.480469 90.796875 84.363281 88.953125 84.246094 C 91.773438 83.734375 94.597656 83.238281 97.425781 82.746094 C 98.382812 82.582031 99.339844 82.410156 100.292969 82.238281 C 106.71875 81.078125 112.796875 80.496094 119.332031 80.738281 C 115.523438 78.199219 109.773438 79.410156 105.457031 80.210938 C 104.128906 80.480469 102.800781 80.753906 101.476562 81.03125 C 96.378906 82.019531 91.449219 82.769531 86.25 82.75 C 85.777344 82.746094 85.304688 82.746094 84.816406 82.742188 C 81.433594 82.660156 78.226562 82.074219 74.929688 81.324219 C 75.515625 80.738281 75.515625 80.738281 77.792969 80.722656 C 78.777344 80.742188 79.757812 80.757812 80.738281 80.777344 C 84.816406 80.820312 88.488281 80.613281 92.457031 79.570312 C 92.457031 79.378906 92.457031 79.1875 92.457031 78.988281 C 92.109375 79.03125 91.761719 79.070312 91.402344 79.113281 C 83.96875 79.910156 77.039062 80.308594 69.929688 77.746094 C 68.574219 77.167969 68.574219 77.167969 67.335938 77.234375 Z M 60.324219 77.820312 C 60.515625 78.398438 60.710938 78.976562 60.910156 79.570312 C 60.910156 78.992188 60.910156 78.414062 60.910156 77.820312 C 60.714844 77.820312 60.523438 77.820312 60.324219 77.820312 Z M 92.457031 78.402344 C 94.796875 78.988281 94.796875 78.988281 94.796875 78.988281 Z M 121.085938 81.324219 C 121.277344 81.710938 121.472656 82.09375 121.671875 82.492188 C 122.054688 82.300781 122.441406 82.105469 122.839844 81.910156 C 122.261719 81.714844 121.683594 81.523438 121.085938 81.324219 Z M 123.421875 83.078125 C 124 83.65625 124.582031 84.234375 125.175781 84.828125 C 124.984375 84.25 124.789062 83.671875 124.59375 83.078125 C 124.207031 83.078125 123.820312 83.078125 123.421875 83.078125 Z M 125.761719 85.414062 C 126.144531 86.761719 126.53125 88.113281 126.929688 89.503906 C 127.378906 88.429688 127.378906 88.429688 127.511719 87.167969 C 126.722656 86.132812 126.722656 86.132812 125.761719 85.414062 Z M 125.761719 85.414062 " fill-opacity="1" fill-rule="nonzero"/><path fill="#ffffff" d="M 67.917969 89.503906 C 74.007812 92.199219 77.273438 98.179688 79.605469 104.109375 C 80.332031 106.621094 80.90625 109.128906 81.355469 111.707031 C 80.953125 106.75 79.839844 102.859375 77.441406 98.558594 C 76.96875 97.695312 76.53125 96.816406 76.097656 95.929688 C 76.292969 95.546875 76.484375 95.160156 76.683594 94.761719 C 77.261719 95.148438 77.839844 95.535156 78.4375 95.929688 C 78.050781 95.351562 77.664062 94.773438 77.269531 94.179688 C 78.941406 94.535156 80.285156 95.050781 81.773438 95.886719 C 82.175781 96.113281 82.578125 96.335938 82.992188 96.570312 C 83.402344 96.804688 83.816406 97.039062 84.242188 97.28125 C 84.652344 97.511719 85.0625 97.738281 85.488281 97.972656 C 89.515625 100.25 92.246094 102.566406 94.757812 106.445312 C 95.011719 106.832031 95.265625 107.21875 95.527344 107.617188 C 100.234375 114.925781 103.566406 121.789062 102.023438 130.621094 C 99.320312 141.1875 90.171875 148.042969 81.941406 154.355469 C 74.9375 159.804688 67.515625 166.121094 65.976562 175.359375 C 65.632812 179.625 67.308594 183.023438 69.671875 186.492188 C 72.421875 189.714844 75.492188 192.902344 79.019531 195.253906 C 79.019531 195.640625 79.019531 196.027344 79.019531 196.421875 C 68.929688 194.078125 60.855469 187.335938 55.066406 178.894531 C 51.75 172.679688 49.738281 166.953125 51.3125 159.84375 C 53.929688 153.128906 60.011719 149.71875 66.167969 146.761719 C 65.359375 143 64.171875 139.496094 62.515625 136.023438 C 62.199219 135.359375 61.882812 134.691406 61.558594 134.003906 C 59.523438 130.957031 57.230469 129.351562 53.65625 128.519531 C 52.753906 128.34375 51.847656 128.183594 50.941406 128.027344 C 47.507812 127.433594 45.007812 126.804688 42.210938 124.558594 C 40.441406 121.355469 40.386719 117.703125 40.421875 114.117188 C 40.429688 113.441406 40.433594 112.769531 40.4375 112.074219 C 40.445312 111.566406 40.453125 111.058594 40.460938 110.535156 C 42.257812 112.335938 42.246094 114.765625 42.609375 117.207031 C 43.058594 119.785156 43.617188 121.207031 45.71875 122.804688 C 52.527344 125.078125 61.847656 123.671875 68.175781 120.691406 C 70.082031 119.699219 71.9375 118.6875 73.761719 117.546875 C 74.59375 117.03125 74.59375 117.03125 75.445312 116.503906 C 76.867188 115.273438 76.867188 115.273438 76.933594 113.285156 C 76.011719 105.351562 72.285156 98.519531 68.410156 91.675781 C 67.917969 90.671875 67.917969 90.671875 67.917969 89.503906 Z M 80.1875 97.683594 C 80.984375 99.429688 81.910156 100.773438 83.183594 102.210938 C 83.496094 102.570312 83.8125 102.929688 84.136719 103.296875 C 84.375 103.566406 84.617188 103.835938 84.863281 104.109375 C 84.863281 101.914062 84.296875 101.507812 82.855469 99.910156 C 82.480469 99.492188 82.109375 99.074219 81.726562 98.644531 C 81.410156 98.328125 81.097656 98.011719 80.773438 97.683594 C 80.582031 97.683594 80.386719 97.683594 80.1875 97.683594 Z M 85.445312 104.109375 C 86.1875 106.691406 86.1875 106.691406 87.785156 108.785156 C 87.492188 106.628906 87.140625 105.507812 85.445312 104.109375 Z M 87.785156 108.785156 C 88.367188 110.535156 88.367188 110.535156 88.367188 110.535156 Z M 88.367188 110.535156 C 88.5625 114.394531 88.753906 118.25 88.953125 122.222656 C 89.144531 122.222656 89.339844 122.222656 89.535156 122.222656 C 89.570312 120.710938 89.589844 119.203125 89.609375 117.695312 C 89.621094 117.269531 89.628906 116.839844 89.640625 116.402344 C 89.660156 113.964844 89.488281 112.773438 88.367188 110.535156 Z M 77.269531 116.964844 C 76.953125 117.386719 76.640625 117.808594 76.316406 118.242188 C 74.695312 120.167969 72.949219 121.410156 70.878906 122.804688 C 66.988281 125.339844 66.988281 125.339844 63.828125 128.648438 C 63.667969 130.476562 64.019531 132.125 64.414062 133.90625 C 64.523438 134.425781 64.632812 134.945312 64.746094 135.480469 C 65.113281 137.117188 65.507812 138.742188 65.910156 140.371094 C 66.046875 140.933594 66.183594 141.492188 66.324219 142.070312 C 66.660156 143.441406 66.996094 144.808594 67.335938 146.175781 C 70.335938 145.800781 72.9375 144.894531 75.734375 143.804688 C 76.164062 143.636719 76.59375 143.472656 77.035156 143.304688 C 78.089844 142.902344 79.140625 142.496094 80.1875 142.085938 C 78.132812 141.402344 77.585938 141.660156 75.585938 142.34375 C 73.523438 143.046875 71.859375 143.351562 69.671875 143.253906 C 70.132812 142.824219 70.589844 142.390625 71.0625 141.949219 C 74.949219 138.21875 78.140625 134.566406 80.773438 129.816406 C 80.988281 129.441406 81.207031 129.066406 81.429688 128.679688 C 81.996094 127.675781 81.996094 127.675781 82.527344 126.3125 C 82.332031 125.925781 82.140625 125.539062 81.941406 125.144531 C 81.566406 125.660156 81.195312 126.179688 80.808594 126.714844 C 78.890625 129.046875 76.4375 130.253906 73.761719 131.570312 C 73.960938 131.210938 74.15625 130.847656 74.359375 130.476562 C 76.695312 126.039062 78.113281 122.035156 77.851562 116.964844 C 77.660156 116.964844 77.464844 116.964844 77.269531 116.964844 Z M 82.527344 123.976562 C 83.109375 125.144531 83.109375 125.144531 83.109375 125.144531 Z M 82.527344 123.976562 " fill-opacity="1" fill-rule="nonzero"/><path fill="#ffffff" d="M 93.625 103.527344 C 100.394531 106.683594 104.984375 112.453125 107.648438 119.300781 C 109.621094 126.113281 108.660156 134.523438 105.894531 140.917969 C 105.667969 141.453125 105.441406 141.988281 105.207031 142.542969 C 102.835938 147.429688 99.148438 151.113281 95.378906 154.941406 C 94.949219 155.386719 94.519531 155.832031 94.078125 156.289062 C 92.605469 157.796875 91.300781 159.023438 89.535156 160.199219 C 89.917969 160.257812 90.300781 160.3125 90.691406 160.371094 C 94.558594 161.035156 97.460938 161.839844 99.945312 165.09375 C 100.707031 166.78125 101.007812 168.296875 101.222656 170.132812 C 100.839844 170.144531 100.460938 170.160156 100.066406 170.175781 C 96.707031 170.394531 94.527344 170.796875 91.875 173.050781 C 90.496094 175.117188 90.417969 175.878906 90.707031 178.3125 C 92.195312 181.171875 93.847656 182.558594 96.546875 184.152344 C 95.113281 185.652344 94.308594 186.453125 92.167969 186.566406 C 91.601562 186.566406 91.035156 186.566406 90.449219 186.5625 C 89.882812 186.566406 89.320312 186.566406 88.734375 186.566406 C 87.199219 186.492188 87.199219 186.492188 85.445312 185.90625 C 85.445312 187.0625 85.445312 188.21875 85.445312 189.410156 C 79.671875 186.71875 75.507812 182.355469 72.957031 176.558594 C 71.347656 172.113281 71.679688 168.902344 73.578125 164.582031 C 76.835938 158.371094 82.421875 153.90625 87.855469 149.644531 C 94.976562 144.003906 101.402344 136.882812 102.613281 127.515625 C 102.941406 119.324219 99.023438 112.65625 94.539062 106.082031 C 93.625 104.695312 93.625 104.695312 93.625 103.527344 Z M 93.625 103.527344 " fill-opacity="1" fill-rule="nonzero"/><path fill="#ffffff" d="M 297.53125 163.121094 C 300.421875 163.121094 303.3125 163.121094 306.292969 163.121094 C 309.472656 169.125 312.644531 175.132812 315.640625 181.230469 C 318.820312 175.226562 321.980469 169.214844 324.988281 163.121094 C 327.882812 163.121094 330.773438 163.121094 333.753906 163.121094 C 333.753906 173.53125 333.753906 183.941406 333.753906 194.671875 C 331.441406 194.671875 329.125 194.671875 326.742188 194.671875 C 326.550781 188.691406 326.355469 182.714844 326.15625 176.558594 C 323.652344 181.570312 321.144531 186.582031 318.5625 191.75 C 316.828125 191.75 315.09375 191.75 313.304688 191.75 C 312.378906 189.996094 311.453125 188.242188 310.53125 186.492188 C 310.269531 186 310.011719 185.511719 309.746094 185.003906 C 309.359375 184.277344 309.359375 184.277344 308.96875 183.53125 C 308.734375 183.09375 308.503906 182.652344 308.261719 182.199219 C 307.195312 180.132812 306.164062 178.050781 305.125 175.972656 C 304.933594 182.144531 304.738281 188.3125 304.539062 194.671875 C 302.226562 194.671875 299.914062 194.671875 297.53125 194.671875 C 297.53125 184.257812 297.53125 173.847656 297.53125 163.121094 Z M 297.53125 163.121094 " fill-opacity="1" fill-rule="nonzero"/><path fill="#ffffff" d="M 398.148438 88.6875 C 398.535156 88.683594 398.921875 88.683594 399.320312 88.683594 C 400.132812 88.679688 400.941406 88.683594 401.753906 88.691406 C 402.984375 88.699219 404.214844 88.691406 405.445312 88.679688 C 406.238281 88.679688 407.03125 88.683594 407.824219 88.6875 C 408.535156 88.6875 409.246094 88.691406 409.980469 88.691406 C 412.628906 88.984375 415.136719 89.636719 417.042969 91.621094 C 419.027344 95.71875 419.238281 100.089844 417.777344 104.402344 C 416.191406 106.585938 414.84375 107.976562 412.15625 108.546875 C 409.125 108.933594 406.109375 108.890625 403.058594 108.894531 C 402.097656 108.90625 402.097656 108.90625 401.117188 108.914062 C 392.734375 108.929688 392.734375 108.929688 389.933594 106.796875 C 387.25 103.042969 387.105469 99.863281 387.503906 95.347656 C 387.984375 93.523438 388.527344 92.039062 389.839844 90.671875 C 392.734375 89.222656 394.863281 88.695312 398.148438 88.6875 Z M 398.148438 88.6875 " fill-opacity="1" fill-rule="nonzero"/><path fill="#ffffff" d="M 455.277344 146.175781 C 456.371094 146.359375 456.371094 146.359375 457.613281 146.761719 C 458 147.339844 458.386719 147.917969 458.78125 148.515625 C 459.519531 148.671875 460.253906 148.828125 461.011719 148.988281 C 463.167969 149.484375 464.503906 150.207031 465.871094 152.046875 C 466.507812 153.484375 466.519531 154.648438 466.5625 156.21875 C 466.722656 160.386719 469.019531 162.960938 471.636719 166.042969 C 474.847656 164.730469 476.527344 162.039062 478.0625 159.03125 C 478.347656 157.339844 478.425781 155.734375 478.472656 154.019531 C 478.648438 152.601562 478.648438 152.601562 480.070312 150.777344 C 482.273438 149.167969 483.492188 148.773438 486.242188 149.097656 C 487.957031 150.230469 487.957031 150.230469 489.164062 152.019531 C 489.425781 154.558594 489.171875 156.523438 487.578125 158.554688 C 485.625 160.105469 483.660156 160.320312 481.253906 160.78125 C 479.710938 161.230469 479.710938 161.230469 479.132812 162.667969 C 478.972656 163.203125 478.8125 163.738281 478.648438 164.289062 C 478.390625 164.847656 478.136719 165.40625 477.875 165.984375 C 477.480469 166.863281 477.480469 166.863281 477.078125 167.757812 C 476.808594 168.339844 476.542969 168.925781 476.265625 169.527344 C 475.167969 173.125 476.792969 176.34375 478.097656 179.699219 C 478.347656 180.34375 478.347656 180.34375 478.597656 181 C 479 182.054688 479.40625 183.101562 479.816406 184.152344 C 480.394531 184.1875 480.96875 184.222656 481.5625 184.261719 C 482.6875 184.335938 482.6875 184.335938 483.832031 184.410156 C 484.949219 184.480469 484.949219 184.480469 486.09375 184.554688 C 487.996094 184.738281 487.996094 184.738281 489.164062 185.320312 C 488.652344 189.851562 488.652344 189.851562 487.996094 191.164062 C 486.066406 191.164062 484.140625 191.164062 482.152344 191.164062 C 482.441406 193.765625 482.441406 193.765625 482.738281 196.421875 C 480.984375 195.839844 480.984375 195.839844 480 194.121094 C 479.230469 192.332031 479.230469 192.332031 479.230469 191.164062 C 476.726562 191.164062 474.21875 191.164062 471.636719 191.164062 C 471.25 190.394531 470.863281 189.621094 470.46875 188.828125 C 468.679688 188.351562 468.679688 188.351562 466.960938 188.242188 C 466.816406 188.726562 466.671875 189.207031 466.523438 189.703125 C 465.683594 192.054688 464.613281 194.214844 463.457031 196.421875 C 462.589844 196.132812 462.589844 196.132812 461.703125 195.839844 C 462.570312 192.367188 462.570312 192.367188 463.457031 188.828125 C 462.425781 189.117188 462.425781 189.117188 461.375 189.410156 C 459.097656 189.972656 457.050781 190.226562 454.691406 189.996094 C 453.523438 189.265625 453.523438 189.265625 452.941406 188.242188 C 453.121094 186.964844 453.121094 186.964844 453.523438 185.90625 C 455.113281 185.335938 456.023438 185.347656 457.722656 185.613281 C 460.332031 185.957031 462.625 185.703125 465.210938 185.320312 C 465.34375 184.621094 465.476562 183.925781 465.609375 183.203125 C 465.980469 181.382812 466.449219 179.910156 467.25 178.222656 C 468.675781 175.121094 469.71875 172.683594 468.660156 169.339844 C 466.714844 164.324219 466.714844 164.324219 462.871094 160.78125 C 461.558594 160.3125 461.558594 160.3125 460.207031 159.980469 C 458.429688 159.410156 457.71875 159.140625 456.410156 157.753906 C 455.664062 155.515625 455.707031 153.792969 455.863281 151.433594 C 456.054688 151.050781 456.246094 150.664062 456.445312 150.265625 C 456.144531 149.917969 455.84375 149.566406 455.53125 149.207031 C 455.253906 148.785156 454.980469 148.363281 454.691406 147.929688 C 454.886719 147.351562 455.078125 146.773438 455.277344 146.175781 Z M 458.308594 152.128906 C 457.46875 153.179688 457.46875 153.179688 457.6875 154.648438 C 458.238281 156.226562 458.570312 156.925781 459.953125 157.863281 C 461.4375 158.105469 461.4375 158.105469 462.871094 157.863281 C 463.257812 157.476562 463.644531 157.089844 464.042969 156.691406 C 463.988281 154.632812 463.988281 154.632812 463.457031 152.601562 C 461.5625 151.339844 460.339844 150.796875 458.308594 152.128906 Z M 481.347656 152.714844 C 480.234375 154.277344 480.234375 154.277344 480.546875 156 C 480.761719 156.632812 480.761719 156.632812 480.984375 157.277344 C 482.621094 157.777344 482.621094 157.777344 484.488281 157.863281 C 485.949219 156.984375 485.949219 156.984375 486.828125 155.523438 C 487.121094 154.015625 487.121094 154.015625 486.828125 152.601562 C 485.761719 151.320312 485.761719 151.320312 484.269531 151.179688 C 482.617188 151.3125 482.617188 151.3125 481.347656 152.714844 Z M 471.636719 170.132812 C 471.445312 170.902344 471.25 171.671875 471.050781 172.46875 C 471.628906 172.660156 472.207031 172.855469 472.804688 173.050781 C 473.191406 172.472656 473.574219 171.894531 473.972656 171.300781 C 473.203125 170.914062 472.429688 170.527344 471.636719 170.132812 Z M 472.21875 177.726562 C 471.730469 178.675781 471.246094 179.625 470.761719 180.574219 C 470.488281 181.101562 470.21875 181.632812 469.9375 182.175781 C 469.21875 183.492188 469.21875 183.492188 469.300781 184.738281 C 471.421875 184.738281 473.539062 184.738281 475.726562 184.738281 C 474.761719 182.425781 473.796875 180.109375 472.804688 177.726562 C 472.613281 177.726562 472.417969 177.726562 472.21875 177.726562 Z M 472.21875 177.726562 " fill-opacity="1" fill-rule="nonzero"/><path fill="#ffffff" d="M 274.160156 163.121094 C 277.050781 163.121094 279.945312 163.121094 282.921875 163.121094 C 283.410156 164.285156 283.898438 165.449219 284.398438 166.652344 C 284.890625 167.820312 285.378906 168.992188 285.871094 170.160156 C 286.21875 170.992188 286.566406 171.820312 286.910156 172.648438 C 289.332031 178.433594 291.773438 184.210938 294.292969 189.953125 C 295.777344 193.375 295.777344 193.375 295.777344 194.671875 C 293.078125 194.671875 290.378906 194.671875 287.597656 194.671875 C 286.828125 192.933594 286.054688 191.199219 285.261719 189.410156 C 280.632812 189.410156 276.007812 189.410156 271.238281 189.410156 C 270.46875 191.148438 269.695312 192.882812 268.902344 194.671875 C 266.203125 194.671875 263.503906 194.671875 260.722656 194.671875 C 265.082031 184.101562 269.59375 173.601562 274.160156 163.121094 Z M 278.25 171.882812 C 276.339844 175.496094 274.925781 179.128906 273.574219 182.984375 C 276.660156 182.984375 279.746094 182.984375 282.921875 182.984375 C 282.367188 181.460938 281.804688 179.941406 281.242188 178.421875 C 281.085938 177.988281 280.929688 177.558594 280.765625 177.113281 C 280.613281 176.699219 280.457031 176.28125 280.300781 175.851562 C 280.160156 175.46875 280.015625 175.085938 279.871094 174.695312 C 279.386719 173.472656 279.386719 173.472656 278.25 171.882812 Z M 278.25 171.882812 " fill-opacity="1" fill-rule="nonzero"/><path fill="#ffffff" d="M 161.398438 88.917969 C 163.152344 88.917969 163.152344 88.917969 164.410156 89.855469 C 165.800781 91.660156 165.789062 92.691406 165.800781 94.953125 C 165.804688 95.691406 165.808594 96.429688 165.8125 97.191406 C 165.804688 97.988281 165.792969 98.785156 165.78125 99.582031 C 165.777344 100.1875 165.777344 100.1875 165.773438 100.804688 C 165.726562 108.011719 164.78125 114.878906 163.414062 121.957031 C 161.703125 131.320312 163.136719 139.777344 166.65625 148.515625 C 166.878906 149.074219 167.105469 149.632812 167.332031 150.207031 C 167.496094 150.613281 167.660156 151.015625 167.828125 151.433594 C 162.660156 150.449219 157.832031 145.121094 154.972656 140.917969 C 154.394531 141.207031 154.394531 141.207031 153.804688 141.503906 C 150.640625 135.714844 149.527344 131.140625 149.714844 124.558594 C 148.847656 127.453125 148.847656 127.453125 147.960938 130.402344 C 146.792969 129.234375 146.792969 129.234375 146.5 126.933594 C 146.691406 120.953125 151.363281 115.890625 154.789062 111.285156 C 157.554688 107.5 159.667969 103.617188 160.339844 98.925781 C 160.425781 98.339844 160.511719 97.753906 160.597656 97.148438 C 160.929688 94.410156 161.195312 91.671875 161.398438 88.917969 Z M 163.152344 92.425781 C 162.765625 96.667969 162.382812 100.910156 161.984375 105.277344 C 163.914062 102.386719 163.804688 99.753906 163.773438 96.332031 C 163.769531 95.597656 163.761719 94.867188 163.757812 94.113281 C 163.75 93.554688 163.742188 93 163.738281 92.425781 C 163.542969 92.425781 163.351562 92.425781 163.152344 92.425781 Z M 161.398438 105.277344 C 161.984375 107.03125 161.984375 107.03125 161.984375 107.03125 Z M 160.816406 107.03125 C 161.398438 108.785156 161.398438 108.785156 161.398438 108.785156 Z M 160.230469 108.785156 C 160.816406 110.535156 160.816406 110.535156 160.816406 110.535156 Z M 159.648438 110.535156 C 160.230469 111.707031 160.230469 111.707031 160.230469 111.707031 Z M 159.0625 111.707031 C 159.648438 112.875 159.648438 112.875 159.648438 112.875 Z M 158.476562 113.457031 C 159.0625 114.625 159.0625 114.625 159.0625 114.625 Z M 157.894531 114.625 C 158.476562 115.796875 158.476562 115.796875 158.476562 115.796875 Z M 157.308594 115.796875 C 157.894531 116.964844 157.894531 116.964844 157.894531 116.964844 Z M 156.726562 116.964844 C 156.054688 118.472656 155.386719 119.980469 154.71875 121.492188 C 154.527344 121.917969 154.335938 122.34375 154.140625 122.785156 C 153.957031 123.199219 153.777344 123.613281 153.585938 124.039062 C 153.417969 124.417969 153.25 124.796875 153.078125 125.1875 C 152.160156 127.527344 151.957031 129.609375 151.941406 132.117188 C 151.933594 132.714844 151.925781 133.308594 151.917969 133.921875 C 152.054688 135.703125 152.472656 136.972656 153.21875 138.582031 C 153.835938 136.734375 153.75 136.097656 153.4375 134.234375 C 152.859375 129.085938 154.585938 124.324219 156.917969 119.792969 C 157.476562 118.609375 157.476562 118.609375 156.726562 116.964844 Z M 153.804688 138.582031 C 154.386719 139.75 154.386719 139.75 154.386719 139.75 Z M 153.804688 138.582031 " fill-opacity="1" fill-rule="nonzero"/><path fill="#ffffff" d="M 553.429688 163.703125 C 558.691406 163.703125 558.691406 163.703125 560.214844 164.996094 C 560.625 165.605469 561.039062 166.214844 561.464844 166.84375 C 561.699219 167.179688 561.933594 167.511719 562.171875 167.855469 C 562.6875 168.589844 563.195312 169.332031 563.699219 170.078125 C 564.917969 171.867188 566.199219 173.613281 567.476562 175.367188 C 568.703125 177.050781 569.914062 178.746094 571.125 180.441406 C 572.605469 182.472656 574.125 184.480469 575.632812 186.492188 C 575.824219 178.972656 576.019531 171.453125 576.21875 163.703125 C 577.757812 163.703125 579.300781 163.703125 580.890625 163.703125 C 580.890625 174.117188 580.890625 184.527344 580.890625 195.253906 C 575.632812 195.253906 575.632812 195.253906 574.128906 193.984375 C 573.722656 193.378906 573.3125 192.773438 572.894531 192.148438 C 572.410156 191.457031 571.925781 190.765625 571.441406 190.074219 C 571.179688 189.691406 570.921875 189.308594 570.65625 188.914062 C 569.347656 187.015625 567.957031 185.175781 566.578125 183.324219 C 565.523438 181.90625 564.46875 180.488281 563.421875 179.0625 C 563.128906 178.664062 562.835938 178.265625 562.535156 177.855469 C 561.410156 176.277344 560.347656 174.664062 559.273438 173.050781 C 559.082031 180.378906 558.886719 187.707031 558.691406 195.253906 C 556.953125 195.253906 555.21875 195.253906 553.429688 195.253906 C 553.429688 184.84375 553.429688 174.429688 553.429688 163.703125 Z M 553.429688 163.703125 " fill-opacity="1" fill-rule="nonzero"/><path fill="#ffffff" d="M 240.273438 163.121094 C 247.984375 163.121094 255.699219 163.121094 263.644531 163.121094 C 263.644531 165.046875 263.644531 166.976562 263.644531 168.960938 C 258.628906 168.960938 253.617188 168.960938 248.453125 168.960938 C 248.453125 171.46875 248.453125 173.976562 248.453125 176.558594 C 253.078125 176.558594 257.707031 176.558594 262.476562 176.558594 C 262.476562 178.484375 262.476562 180.414062 262.476562 182.402344 C 257.847656 182.402344 253.21875 182.402344 248.453125 182.402344 C 248.453125 186.449219 248.453125 190.5 248.453125 194.671875 C 245.753906 194.671875 243.054688 194.671875 240.273438 194.671875 C 240.273438 184.257812 240.273438 173.847656 240.273438 163.121094 Z M 240.273438 163.121094 " fill-opacity="1" fill-rule="nonzero"/><path fill="#ffffff" d="M 543.679688 167.320312 C 547.613281 171.4375 548.988281 175.710938 548.917969 181.304688 C 548.503906 185.597656 546.183594 189.546875 542.914062 192.332031 C 538.074219 195.289062 533.640625 196.597656 528 195.570312 C 523.515625 194.394531 519.996094 192.273438 517.28125 188.460938 C 515.1875 184.753906 514.445312 180.3125 515.199219 176.121094 C 516.613281 171.175781 519.679688 167.46875 524.0625 164.851562 C 530.609375 161.84375 537.933594 163.523438 543.679688 167.320312 Z M 524.035156 170.242188 C 521.378906 173.023438 520.015625 175.59375 519.835938 179.480469 C 520.003906 182.953125 521.046875 185.558594 523.429688 188.101562 C 526.511719 190.890625 529.191406 192.050781 533.371094 191.925781 C 536.789062 191.480469 539.191406 189.914062 541.382812 187.292969 C 543.472656 184.199219 544.347656 181.09375 543.902344 177.367188 C 543.011719 173.710938 541.355469 171.109375 538.242188 168.960938 C 533.027344 166.539062 528.820312 167.082031 524.035156 170.242188 Z M 524.035156 170.242188 " fill-opacity="1" fill-rule="nonzero"/><path fill="#ffffff" d="M 166.074219 91.257812 C 166.460938 91.257812 166.84375 91.257812 167.242188 91.257812 C 167.613281 92.8125 167.976562 94.371094 168.335938 95.929688 C 168.4375 96.355469 168.539062 96.777344 168.644531 97.214844 C 170.722656 106.296875 171.035156 115.507812 171.347656 124.78125 C 171.628906 132.785156 172.070312 140.359375 175.933594 147.5625 C 176.125 147.941406 176.3125 148.320312 176.511719 148.707031 C 177.527344 150.675781 178.644531 152.480469 179.953125 154.269531 C 181.265625 156.109375 181.265625 156.109375 181.265625 157.277344 C 174.886719 155.789062 170.492188 152.671875 166.65625 147.34375 C 163.730469 142.21875 162.925781 136.742188 162.933594 130.914062 C 162.933594 130.363281 162.933594 129.8125 162.933594 129.246094 C 163.011719 123.933594 163.882812 118.851562 164.921875 113.652344 C 165.972656 108.207031 166.160156 102.8125 166.109375 97.28125 C 166.109375 96.699219 166.105469 96.113281 166.101562 95.511719 C 166.09375 94.09375 166.085938 92.675781 166.074219 91.257812 Z M 166.074219 91.257812 " fill-opacity="1" fill-rule="nonzero"/><path fill="#ffffff" d="M 371.730469 163.121094 C 374.429688 163.121094 377.128906 163.121094 379.910156 163.121094 C 380.65625 164.4375 380.65625 164.4375 381.421875 165.785156 C 382.074219 166.929688 382.726562 168.074219 383.378906 169.21875 C 383.707031 169.796875 384.035156 170.378906 384.375 170.976562 C 384.691406 171.527344 385.003906 172.082031 385.328125 172.648438 C 385.621094 173.160156 385.910156 173.671875 386.210938 174.195312 C 386.828125 175.34375 386.828125 175.34375 387.503906 175.972656 C 389.816406 171.730469 392.132812 167.492188 394.515625 163.121094 C 397.214844 163.121094 399.914062 163.121094 402.695312 163.121094 C 402.25 164.019531 401.804688 164.921875 401.359375 165.820312 C 400.953125 166.640625 400.546875 167.460938 400.144531 168.285156 C 398.933594 170.726562 397.664062 173.113281 396.300781 175.472656 C 392.578125 181.996094 390.582031 187.105469 391.007812 194.671875 C 388.503906 194.671875 385.996094 194.671875 383.414062 194.671875 C 383.441406 193.714844 383.441406 193.714844 383.472656 192.738281 C 383.492188 185.195312 381.304688 180.078125 377.570312 173.636719 C 377.070312 172.738281 376.570312 171.839844 376.074219 170.9375 C 375.171875 169.3125 374.261719 167.691406 373.335938 166.078125 C 372.78125 165.105469 372.230469 164.125 371.730469 163.121094 Z M 371.730469 163.121094 " fill-opacity="1" fill-rule="nonzero"/><path fill="#ffffff" d="M 445.488281 165.417969 C 446.511719 166.042969 446.511719 166.042969 447.097656 167.210938 C 446.550781 168.398438 445.96875 169.566406 445.34375 170.714844 C 445.035156 170.59375 444.722656 170.476562 444.398438 170.351562 C 440.492188 168.9375 436.605469 167.945312 432.453125 168.707031 C 431.164062 169.503906 431.164062 169.503906 430.703125 171.226562 C 430.5625 173.050781 430.5625 173.050781 431.605469 174.226562 C 433.902344 176.042969 436.511719 176.664062 439.285156 177.507812 C 442.703125 178.613281 445.355469 180 447.351562 183.132812 C 447.957031 186.089844 447.558594 188.847656 446.441406 191.640625 C 443.980469 194.511719 440.890625 195.632812 437.191406 195.929688 C 431.710938 196.160156 427.382812 194.574219 423.144531 191.164062 C 423.5 189.433594 423.875 188.605469 424.894531 187.074219 C 426.257812 187.585938 427.570312 188.097656 428.828125 188.839844 C 432.097656 190.738281 435.167969 191.257812 438.917969 190.582031 C 440.882812 189.445312 440.882812 189.445312 441.839844 187.660156 C 441.988281 186.105469 441.988281 186.105469 441.253906 184.738281 C 438.890625 182.488281 435.695312 181.8125 432.660156 180.84375 C 429.621094 179.832031 427.132812 178.777344 425.3125 175.988281 C 424.292969 173.089844 424.519531 170.378906 425.773438 167.613281 C 430.929688 162.070312 438.90625 162.484375 445.488281 165.417969 Z M 445.488281 165.417969 " fill-opacity="1" fill-rule="nonzero"/><path fill="#ffffff" d="M 59.738281 54.449219 C 61.207031 55.917969 62.671875 57.382812 64.085938 58.902344 C 68.652344 63.132812 74.707031 63.007812 80.609375 62.921875 C 85.03125 62.695312 89.261719 61.609375 93.554688 60.582031 C 111.453125 56.332031 111.453125 56.332031 119.371094 59.707031 C 122.230469 61.542969 124.070312 64.039062 124.894531 67.34375 C 125.066406 68.46875 125.066406 68.46875 125.175781 70.222656 C 124.90625 69.984375 124.640625 69.746094 124.363281 69.496094 C 124.003906 69.183594 123.648438 68.867188 123.277344 68.542969 C 122.925781 68.230469 122.574219 67.921875 122.210938 67.597656 C 118.902344 65.003906 115.8125 65.203125 111.738281 65.550781 C 109.140625 65.957031 106.5625 66.464844 103.992188 67.003906 C 90.851562 69.734375 76.675781 69.960938 65.058594 62.5 C 62.675781 60.710938 61.058594 58.257812 59.738281 55.617188 C 59.738281 55.230469 59.738281 54.847656 59.738281 54.449219 Z M 59.738281 54.449219 " fill-opacity="1" fill-rule="nonzero"/><path fill="#ffffff" d="M 351.863281 163.121094 C 354.5625 163.121094 357.261719 163.121094 360.042969 163.121094 C 360.042969 171.410156 360.042969 179.703125 360.042969 188.242188 C 364.480469 188.242188 368.914062 188.242188 373.480469 188.242188 C 373.480469 190.363281 373.480469 192.484375 373.480469 194.671875 C 366.347656 194.671875 359.214844 194.671875 351.863281 194.671875 C 351.863281 184.257812 351.863281 173.847656 351.863281 163.121094 Z M 351.863281 163.121094 " fill-opacity="1" fill-rule="nonzero"/><path fill="#ffffff" d="M 112.324219 48.023438 C 114.148438 49.226562 114.148438 49.226562 115.242188 50.359375 C 115.242188 50.746094 115.242188 51.128906 115.242188 51.527344 C 114.578125 51.535156 113.914062 51.542969 113.230469 51.550781 C 107.148438 51.707031 102.1875 52.640625 96.546875 55.03125 C 75.035156 63.863281 75.035156 63.863281 67.828125 61.65625 C 64.261719 59.851562 61.535156 56.1875 59.738281 52.695312 C 59.738281 52.308594 59.738281 51.925781 59.738281 51.527344 C 61.363281 52.167969 62.933594 52.828125 64.5 53.597656 C 66.933594 54.640625 69.167969 54.738281 71.789062 54.703125 C 72.253906 54.699219 72.714844 54.695312 73.191406 54.6875 C 79.765625 54.496094 85.191406 52.132812 90.914062 49.085938 C 97.570312 45.5625 105.335938 44.890625 112.324219 48.023438 Z M 112.324219 48.023438 " fill-opacity="1" fill-rule="nonzero"/><path fill="#ffffff" d="M 167.828125 30.492188 C 173.980469 30.519531 178.9375 33.003906 183.601562 36.921875 C 182.972656 36.359375 182.335938 35.796875 181.703125 35.242188 C 181.351562 34.929688 180.996094 34.617188 180.632812 34.296875 C 179.527344 33.425781 178.453125 32.828125 177.175781 32.246094 C 177.175781 31.859375 177.175781 31.476562 177.175781 31.078125 C 185.097656 32.050781 185.097656 32.050781 187.691406 34.582031 C 190.074219 38.429688 191.28125 41.910156 191.253906 46.445312 C 191.25 47.015625 191.25 47.585938 191.246094 48.171875 C 191.242188 49.054688 191.242188 49.054688 191.234375 49.957031 C 191.230469 50.558594 191.226562 51.15625 191.226562 51.773438 C 191.21875 53.25 191.207031 54.726562 191.195312 56.203125 C 190.027344 55.617188 190.027344 55.617188 189.65625 54.539062 C 189.5625 54.109375 189.46875 53.683594 189.371094 53.242188 C 189.222656 52.601562 189.222656 52.601562 189.074219 51.945312 C 188.96875 51.449219 188.96875 51.449219 188.859375 50.941406 C 188.992188 51.558594 189.128906 52.171875 189.269531 52.804688 C 190.242188 57.058594 191.175781 60.890625 193.5625 64.613281 C 194.117188 65.550781 194.117188 65.550781 194.117188 66.71875 C 188.867188 64.917969 186.582031 61.054688 184.191406 56.324219 C 182.894531 53.488281 181.960938 50.511719 180.972656 47.558594 C 178.324219 39.699219 175.171875 34.976562 167.828125 31.078125 C 167.828125 30.886719 167.828125 30.691406 167.828125 30.492188 Z M 184.183594 38.089844 C 184.378906 38.667969 184.570312 39.246094 184.769531 39.84375 C 184.769531 39.261719 184.769531 38.683594 184.769531 38.089844 C 184.578125 38.089844 184.382812 38.089844 184.183594 38.089844 Z M 185.355469 39.84375 C 185.9375 41.011719 185.9375 41.011719 185.9375 41.011719 Z M 185.9375 41.011719 C 186.523438 42.179688 186.523438 42.179688 186.523438 42.179688 Z M 186.523438 42.179688 C 187.105469 43.933594 187.105469 43.933594 187.105469 43.933594 Z M 187.105469 43.933594 C 187.691406 45.683594 187.691406 45.683594 187.691406 45.683594 Z M 187.691406 45.683594 C 188.273438 47.4375 188.273438 47.4375 188.273438 47.4375 Z M 187.691406 45.683594 " fill-opacity="1" fill-rule="nonzero"/><path fill="#ffffff" d="M 92.523438 32.496094 C 92.886719 32.800781 93.25 33.101562 93.625 33.414062 C 94.84375 33.941406 94.84375 33.941406 96.074219 34.328125 C 97.304688 34.730469 97.304688 34.730469 98.300781 35.167969 C 98.589844 35.746094 98.589844 35.746094 98.886719 36.335938 C 98.152344 36.308594 97.417969 36.28125 96.660156 36.253906 C 87.851562 36.019531 83.183594 37.710938 76.035156 42.753906 C 71.078125 46.226562 66.472656 48.074219 60.324219 48.023438 C 59.9375 47.828125 59.554688 47.636719 59.15625 47.4375 C 59.273438 44.097656 59.820312 41.824219 61.988281 39.226562 C 67.722656 34.035156 85.410156 27.683594 92.523438 32.496094 Z M 92.523438 32.496094 " fill-opacity="1" fill-rule="nonzero"/><path fill="#ffffff" d="M 338.425781 163.121094 C 341.125 163.121094 343.824219 163.121094 346.605469 163.121094 C 346.605469 173.53125 346.605469 183.941406 346.605469 194.671875 C 343.90625 194.671875 341.207031 194.671875 338.425781 194.671875 C 338.425781 184.257812 338.425781 173.847656 338.425781 163.121094 Z M 338.425781 163.121094 " fill-opacity="1" fill-rule="nonzero"/><path fill="#ffffff" d="M 179.570312 69.601562 C 182.417969 71.527344 182.417969 71.527344 183.601562 72.558594 C 183.601562 72.945312 183.601562 73.332031 183.601562 73.730469 C 183.210938 73.570312 182.824219 73.414062 182.421875 73.253906 C 180.339844 72.425781 178.246094 71.609375 176.152344 70.808594 C 175.761719 70.65625 175.375 70.503906 174.972656 70.347656 C 165.917969 66.898438 155.195312 66.253906 146.210938 70.222656 C 142.324219 72.007812 139.105469 74.082031 136.019531 77.046875 C 135.109375 77.820312 135.109375 77.820312 133.941406 77.820312 C 134.058594 76.515625 134.195312 75.210938 134.339844 73.910156 C 134.417969 73.1875 134.492188 72.460938 134.566406 71.714844 C 135.378906 68.605469 137.015625 67.332031 139.703125 65.707031 C 140.285156 65.425781 140.863281 65.144531 141.460938 64.855469 C 142.039062 64.570312 142.617188 64.285156 143.210938 63.992188 C 155.515625 58.757812 168.773438 62.855469 179.570312 69.601562 Z M 179.570312 69.601562 " fill-opacity="1" fill-rule="nonzero"/><path fill="#ffffff" d="M 107.648438 42.761719 C 109.085938 43.859375 110.4375 45.011719 111.738281 46.269531 C 111.546875 46.65625 111.351562 47.039062 111.152344 47.4375 C 110.273438 47.15625 110.273438 47.15625 109.371094 46.867188 C 100.5 44.347656 92.738281 47.734375 84.941406 51.632812 C 78.734375 54.6875 71.640625 55.765625 64.890625 53.71875 C 62.953125 52.957031 61.632812 52.011719 60.324219 50.359375 C 60.976562 50.453125 61.625 50.550781 62.296875 50.652344 C 70.492188 51.617188 75.914062 49.5625 82.816406 45.273438 C 90.164062 40.742188 99.765625 37.621094 107.648438 42.761719 Z M 107.648438 42.761719 " fill-opacity="1" fill-rule="nonzero"/><path fill="#ffffff" d="M 73.179688 161.953125 C 73.5625 161.953125 73.949219 161.953125 74.347656 161.953125 C 74.09375 162.566406 74.09375 162.566406 73.835938 163.191406 C 73.617188 163.746094 73.402344 164.300781 73.179688 164.871094 C 72.960938 165.390625 72.742188 165.910156 72.519531 166.441406 C 71.417969 170.621094 71.621094 174.308594 73.578125 178.183594 C 76.4375 183 80.359375 187.453125 85.445312 189.996094 C 85.496094 191.199219 85.527344 192.40625 85.554688 193.609375 C 85.585938 194.617188 85.585938 194.617188 85.617188 195.644531 C 85.433594 197.75 84.914062 198.816406 83.695312 200.511719 C 83.40625 200.125 83.117188 199.742188 82.816406 199.34375 C 80.242188 196.253906 77.394531 193.488281 74.308594 190.910156 C 70.390625 187.507812 67.003906 183.566406 66.167969 178.3125 C 65.808594 172.433594 68.296875 167.824219 71.863281 163.300781 C 72.296875 162.855469 72.730469 162.410156 73.179688 161.953125 Z M 73.179688 161.953125 " fill-opacity="1" fill-rule="nonzero"/><path fill="#ffffff" d="M 176.003906 115.796875 C 177.757812 116.964844 177.757812 116.964844 178.191406 118.46875 C 178.300781 119.066406 178.410156 119.667969 178.527344 120.285156 C 179.195312 123.328125 180 125.003906 182.367188 127.015625 C 183.425781 128.722656 182.777344 130.226562 182.433594 132.15625 C 181.773438 141.070312 182.753906 148.394531 187.933594 155.910156 C 188.75 157.117188 189.414062 158.296875 190.027344 159.613281 C 185.5625 159.390625 182.621094 156.453125 179.65625 153.371094 C 175.914062 148.796875 175.058594 143.679688 175.238281 137.925781 C 175.246094 137.332031 175.257812 136.738281 175.265625 136.128906 C 175.300781 134.21875 175.359375 132.3125 175.421875 130.402344 C 175.445312 129.71875 175.464844 129.035156 175.488281 128.332031 C 175.632812 124.152344 175.804688 119.972656 176.003906 115.796875 Z M 176.003906 115.796875 " fill-opacity="1" fill-rule="nonzero"/><path fill="#ffffff" d="M 170.492188 37.761719 C 178.296875 43.851562 184.207031 54.640625 187.691406 63.796875 C 184.988281 62.925781 183.019531 61.386719 180.898438 59.5625 C 180.542969 59.253906 180.183594 58.945312 179.816406 58.632812 C 176.0625 55.304688 173.101562 51.476562 170.164062 47.4375 C 166.644531 42.617188 162.875 38.175781 156.726562 36.921875 C 153.621094 36.574219 150.5 36.445312 147.378906 36.335938 C 147.960938 35.167969 147.960938 35.167969 149.789062 34.511719 C 157.101562 32.867188 164.257812 33.613281 170.492188 37.761719 Z M 170.492188 37.761719 " fill-opacity="1" fill-rule="nonzero"/><path fill="#ffffff" d="M 183.601562 128.066406 C 184.757812 128.449219 185.914062 128.835938 187.105469 129.234375 C 187.082031 129.921875 187.058594 130.605469 187.035156 131.316406 C 187.035156 134.230469 187.3125 137.035156 189.445312 139.164062 C 190.945312 139.542969 190.945312 139.542969 192.363281 139.75 C 192.4375 140.238281 192.507812 140.722656 192.578125 141.226562 C 193.230469 145.648438 193.230469 145.648438 194.191406 150.011719 C 194.949219 153.183594 194.800781 156.375 194.703125 159.613281 C 193.386719 160.042969 193.386719 160.042969 191.78125 160.199219 C 187.148438 156.886719 184.09375 150.535156 182.796875 145.117188 C 181.941406 139.757812 182.054688 133.988281 183.015625 128.648438 C 183.210938 128.457031 183.402344 128.261719 183.601562 128.066406 Z M 183.601562 128.066406 " fill-opacity="1" fill-rule="nonzero"/><path fill="#ffffff" d="M 187.691406 77.820312 C 187.691406 78.398438 187.691406 78.976562 187.691406 79.570312 C 186.339844 79.765625 184.988281 79.960938 183.636719 80.15625 C 182.886719 80.265625 182.132812 80.371094 181.359375 80.484375 C 179.511719 80.738281 179.511719 80.738281 178.925781 80.738281 C 178.492188 81.234375 178.058594 81.726562 177.613281 82.238281 C 176.003906 83.660156 176.003906 83.660156 174.59375 83.578125 C 172.914062 83.019531 172.027344 82.34375 170.710938 81.179688 C 165.238281 76.722656 159.316406 75.375 152.453125 75.445312 C 151.71875 75.449219 151.71875 75.449219 150.972656 75.453125 C 149.773438 75.460938 148.574219 75.46875 147.378906 75.480469 C 148.972656 73.765625 150.316406 73.199219 152.5625 72.488281 C 153.164062 72.292969 153.765625 72.097656 154.382812 71.898438 C 164.964844 68.847656 178.730469 71.316406 187.691406 77.820312 Z M 175.421875 77.820312 C 175.613281 78.203125 175.808594 78.589844 176.003906 78.988281 C 176.390625 78.792969 176.777344 78.601562 177.175781 78.402344 C 176.597656 78.210938 176.015625 78.015625 175.421875 77.820312 Z M 175.421875 77.820312 " fill-opacity="1" fill-rule="nonzero"/><path fill="#ffffff" d="M 495.589844 163.703125 C 497.324219 163.703125 499.0625 163.703125 500.847656 163.703125 C 500.847656 172.960938 500.847656 182.214844 500.847656 191.75 C 505.285156 191.75 509.71875 191.75 514.285156 191.75 C 514.285156 192.90625 514.285156 194.0625 514.285156 195.253906 C 508.117188 195.253906 501.945312 195.253906 495.589844 195.253906 C 495.589844 184.84375 495.589844 174.429688 495.589844 163.703125 Z M 495.589844 163.703125 " fill-opacity="1" fill-rule="nonzero"/><path fill="#ffffff" d="M 176.589844 159.03125 C 176.78125 159.03125 176.976562 159.03125 177.175781 159.03125 C 177.335938 159.722656 177.5 160.417969 177.667969 161.128906 C 181.683594 177.582031 190.175781 192.210938 204.621094 201.648438 C 205.972656 202.46875 207.332031 203.261719 208.722656 204.019531 C 207.011719 204.757812 206.34375 204.585938 204.550781 203.949219 C 203.832031 203.617188 203.113281 203.273438 202.402344 202.925781 C 202.015625 202.746094 201.632812 202.5625 201.234375 202.371094 C 200.421875 201.984375 199.605469 201.589844 198.792969 201.191406 C 197.570312 200.597656 196.34375 200.019531 195.113281 199.445312 C 189.292969 196.667969 182.90625 193.394531 180.53125 186.984375 C 179.582031 183.351562 178.988281 179.65625 178.421875 175.945312 C 178.195312 174.476562 177.960938 173.011719 177.722656 171.542969 C 177.570312 170.597656 177.421875 169.652344 177.273438 168.703125 C 177.171875 168.054688 177.171875 168.054688 177.066406 167.394531 C 176.640625 164.578125 176.53125 161.882812 176.589844 159.03125 Z M 176.589844 159.03125 " fill-opacity="1" fill-rule="nonzero"/><path fill="#ffffff" d="M 178.882812 63.792969 C 180.019531 64.34375 181.164062 64.855469 182.320312 65.367188 C 184.167969 66.273438 185.636719 67.023438 187.105469 68.46875 C 187.675781 70.722656 187.550781 72.632812 187.105469 74.898438 C 185.070312 73.722656 183.230469 72.429688 181.375 70.988281 C 172.546875 64.535156 161.765625 60.101562 150.6875 61.75 C 146.691406 62.515625 143.269531 63.5625 139.71875 65.554688 C 138.613281 66.132812 138.613281 66.132812 137.445312 66.132812 C 139.109375 62.425781 142.003906 60.457031 145.699219 58.941406 C 157.027344 54.648438 168.578125 58.757812 178.882812 63.792969 Z M 178.882812 63.792969 " fill-opacity="1" fill-rule="nonzero"/><path fill="#ffffff" d="M 91.875 91.257812 C 101.199219 91.574219 111.375 93.363281 118.457031 99.910156 C 122.113281 103.945312 123.261719 107.769531 123.113281 113.199219 C 122.644531 116.625 121.351562 119.679688 119.917969 122.804688 C 119.53125 122.804688 119.148438 122.804688 118.75 122.804688 C 118.714844 122.023438 118.714844 122.023438 118.683594 121.222656 C 118.277344 113.765625 117.058594 107.4375 111.554688 102.066406 C 107.980469 99.105469 103.648438 97.289062 99.46875 95.347656 C 99.082031 95.164062 98.699219 94.984375 98.300781 94.800781 C 96.164062 93.796875 94.023438 92.8125 91.875 91.839844 C 91.875 91.648438 91.875 91.457031 91.875 91.257812 Z M 91.875 91.257812 " fill-opacity="1" fill-rule="nonzero"/><path fill="#ffffff" d="M 153.28125 41.96875 C 155.011719 43.210938 156.4375 44.6875 157.902344 46.226562 C 161.722656 50.210938 166.378906 54.308594 171.332031 56.785156 C 171.332031 57.171875 171.332031 57.558594 171.332031 57.953125 C 165.238281 58.015625 161.519531 57.011719 156.726562 53.28125 C 156.085938 52.785156 155.445312 52.289062 154.804688 51.792969 C 153.816406 51.023438 152.828125 50.257812 151.84375 49.484375 C 147.585938 46.175781 143.882812 44.421875 138.46875 44.480469 C 137.839844 44.484375 137.207031 44.488281 136.558594 44.496094 C 135.839844 44.503906 135.839844 44.503906 135.109375 44.515625 C 139.707031 39.027344 147.140625 38.519531 153.28125 41.96875 Z M 153.28125 41.96875 " fill-opacity="1" fill-rule="nonzero"/><path fill="#ffffff" d="M 102.972656 38.089844 C 103.554688 38.957031 103.554688 38.957031 104.144531 39.84375 C 103.191406 39.863281 103.191406 39.863281 102.21875 39.886719 C 93.605469 40.179688 87.417969 42.496094 80.011719 46.78125 C 74.519531 49.953125 69.550781 51.796875 63.136719 50.394531 C 62.035156 50.085938 62.035156 50.085938 60.910156 49.773438 C 60.910156 49.390625 60.910156 49.003906 60.910156 48.605469 C 61.523438 48.472656 62.136719 48.335938 62.769531 48.199219 C 68.820312 46.816406 73.230469 44.984375 78.3125 41.355469 C 85.519531 36.242188 94.503906 33.753906 102.972656 38.089844 Z M 102.972656 38.089844 " fill-opacity="1" fill-rule="nonzero"/><path fill="#ffffff" d="M 187.691406 33.414062 C 192.613281 35.554688 195.035156 38.390625 197.039062 43.347656 C 198.140625 47.402344 198.375 51.402344 198.464844 55.582031 C 198.605469 60.078125 198.925781 64.21875 200.542969 68.46875 C 196.804688 68.183594 196.804688 68.183594 195.230469 66.855469 C 191.480469 62.460938 191.628906 57.28125 191.738281 51.816406 C 191.851562 45.734375 191.339844 40.503906 188.273438 35.167969 C 188.082031 34.589844 187.890625 34.011719 187.691406 33.414062 Z M 187.691406 33.414062 " fill-opacity="1" fill-rule="nonzero"/><path fill="#ffffff" d="M 160.15625 78.769531 C 163.300781 81.875 165.734375 84.972656 166.074219 89.503906 C 165.824219 89.285156 165.578125 89.066406 165.324219 88.839844 C 160.613281 84.730469 156.90625 81.609375 150.371094 81.945312 C 145.003906 82.675781 141.300781 85.171875 137.890625 89.292969 C 136.433594 91.246094 135.164062 93.242188 133.941406 95.347656 C 132.804688 92.222656 134.433594 89.464844 135.691406 86.582031 C 136.824219 84.648438 136.824219 84.648438 138.03125 83.078125 C 138.453125 82.488281 138.875 81.894531 139.308594 81.289062 C 141.851562 78.316406 145.808594 76.34375 149.621094 75.578125 C 153.738281 75.257812 156.988281 76.089844 160.15625 78.769531 Z M 160.15625 78.769531 " fill-opacity="1" fill-rule="nonzero"/><path fill="#ffffff" d="M 181.265625 73.144531 C 179 73.898438 178.03125 73.378906 175.785156 72.632812 C 166.71875 69.652344 156.925781 69.753906 148.253906 74.019531 C 142.722656 77.242188 138.257812 81.601562 135.109375 87.167969 C 134.722656 87.167969 134.335938 87.167969 133.941406 87.167969 C 133.070312 80.375 133.070312 80.375 134.910156 77.4375 C 147.722656 65.25 166.273438 65.394531 181.265625 73.144531 Z M 181.265625 73.144531 " fill-opacity="1" fill-rule="nonzero"/><path fill="#ffffff" d="M 116.613281 53.65625 C 118.316406 55.050781 119.355469 56.671875 120.503906 58.539062 C 118.703125 59.113281 117.632812 59.097656 115.828125 58.574219 C 110.136719 57.1875 104.617188 58.011719 98.996094 59.304688 C 97.769531 59.574219 96.542969 59.839844 95.316406 60.109375 C 94.726562 60.238281 94.140625 60.371094 93.535156 60.503906 C 91.316406 61 89.097656 61.476562 86.871094 61.933594 C 86.230469 62.070312 85.59375 62.207031 84.933594 62.347656 C 82.9375 62.65625 81.035156 62.675781 79.019531 62.628906 C 79.605469 61.460938 79.605469 61.460938 81.066406 60.910156 C 81.738281 60.707031 82.414062 60.503906 83.109375 60.289062 C 88.1875 58.695312 93.09375 56.6875 98.019531 54.675781 C 98.929688 54.304688 98.929688 54.304688 99.859375 53.929688 C 100.402344 53.703125 100.945312 53.480469 101.507812 53.253906 C 106.242188 51.457031 112.128906 51.023438 116.613281 53.65625 Z M 116.613281 53.65625 " fill-opacity="1" fill-rule="nonzero"/><path fill="#ffffff" d="M 77.378906 29.800781 C 78.023438 29.792969 78.667969 29.785156 79.335938 29.777344 C 80.257812 29.777344 80.257812 29.777344 81.199219 29.773438 C 81.761719 29.773438 82.324219 29.769531 82.90625 29.769531 C 84.277344 29.910156 84.277344 29.910156 85.445312 31.078125 C 85.113281 31.132812 84.785156 31.1875 84.441406 31.246094 C 71.320312 33.035156 71.320312 33.035156 60.910156 40.425781 C 59.742188 42.703125 58.8125 45.015625 57.988281 47.4375 C 56.316406 45.765625 56.398438 44.28125 56.222656 41.984375 C 56.246094 39.105469 56.976562 36.957031 58.832031 34.746094 C 63.910156 29.9375 70.769531 29.804688 77.378906 29.800781 Z M 77.378906 29.800781 " fill-opacity="1" fill-rule="nonzero"/><path fill="#ffffff" d="M 140.109375 44.882812 C 140.960938 44.839844 140.960938 44.839844 141.828125 44.792969 C 147.113281 45.585938 151.46875 49.113281 155.628906 52.257812 C 156.132812 52.628906 156.636719 53 157.15625 53.386719 C 159.824219 55.378906 159.824219 55.378906 160.816406 56.203125 C 160.816406 56.394531 160.816406 56.585938 160.816406 56.785156 C 156.039062 56.785156 152.589844 54.882812 148.46875 52.699219 C 143.007812 49.8125 138.824219 48.726562 132.769531 50.359375 C 131.992188 50.554688 131.214844 50.75 130.433594 50.941406 C 131.347656 48.480469 133.054688 47.234375 135.109375 45.683594 C 136.886719 45.089844 138.242188 44.945312 140.109375 44.882812 Z M 140.109375 44.882812 " fill-opacity="1" fill-rule="nonzero"/><path fill="#ffffff" d="M 163.789062 40.035156 C 167.6875 43.085938 170.335938 47.46875 173.085938 51.527344 C 170.59375 51.527344 169.304688 50.082031 167.425781 48.605469 C 164.257812 46.195312 161.066406 44.15625 157.492188 42.398438 C 156.90625 42.109375 156.90625 42.109375 156.304688 41.8125 C 153.636719 40.539062 151.4375 39.761719 148.480469 39.785156 C 147.820312 39.789062 147.820312 39.789062 147.148438 39.789062 C 146.691406 39.796875 146.238281 39.800781 145.769531 39.804688 C 145.308594 39.808594 144.84375 39.8125 144.367188 39.8125 C 143.226562 39.820312 142.089844 39.832031 140.949219 39.84375 C 146.113281 34.125 157.914062 36.289062 163.789062 40.035156 Z M 163.789062 40.035156 " fill-opacity="1" fill-rule="nonzero"/><path fill="#ffffff" d="M 199.960938 39.257812 C 202.921875 40.042969 204.832031 41.941406 206.386719 44.515625 C 207.703125 50.242188 207.101562 55.824219 205.644531 61.445312 C 205.253906 63.0625 205.03125 64.589844 204.890625 66.242188 C 204.632812 68.46875 204.632812 68.46875 203.464844 69.640625 C 200.589844 64.601562 201.492188 58.8125 202.296875 53.28125 C 202.601562 48.886719 202.574219 45.363281 200.472656 41.421875 C 199.960938 40.425781 199.960938 40.425781 199.960938 39.257812 Z M 199.960938 39.257812 " fill-opacity="1" fill-rule="nonzero"/><path fill="#ffffff" d="M 198.207031 83.660156 C 199.507812 84.464844 200.636719 85.363281 201.808594 86.34375 C 203.335938 87.515625 204.472656 87.75 206.386719 87.75 C 208.59375 87.253906 208.59375 87.253906 210.476562 86.582031 C 210.214844 89.535156 208.929688 90.90625 206.972656 93.007812 C 204.886719 94.050781 202.726562 93.664062 200.542969 93.007812 C 199.347656 92.066406 198.417969 91.078125 197.449219 89.90625 C 196.199219 88.664062 195.234375 88.214844 193.535156 87.75 C 191.828125 87.855469 191.828125 87.855469 190.136719 88.261719 C 189.566406 88.382812 188.996094 88.5 188.410156 88.621094 C 187.980469 88.722656 187.550781 88.820312 187.105469 88.917969 C 188.960938 84.558594 193.648438 82.496094 198.207031 83.660156 Z M 198.207031 83.660156 " fill-opacity="1" fill-rule="nonzero"/><path fill="#ffffff" d="M 157.308594 76.066406 C 163.980469 76.179688 169.519531 79.734375 174.253906 84.246094 C 173.675781 85.40625 173.097656 86.5625 172.5 87.710938 C 171.3125 90.019531 170.328125 92.265625 169.578125 94.761719 C 167.664062 93.804688 167.460938 91.6875 166.804688 89.757812 C 164.894531 84.4375 162.539062 80.851562 158.082031 77.308594 C 157.828125 77.09375 157.570312 76.875 157.308594 76.648438 C 157.308594 76.457031 157.308594 76.265625 157.308594 76.066406 Z M 157.308594 76.066406 " fill-opacity="1" fill-rule="nonzero"/><path fill="#ffffff" d="M 146.792969 52.113281 C 147.457031 52.464844 148.125 52.816406 148.808594 53.175781 C 150.675781 54.167969 152.535156 55.179688 154.386719 56.203125 C 154.386719 56.394531 154.386719 56.585938 154.386719 56.785156 C 151.578125 56.894531 149.050781 56.699219 146.28125 56.203125 C 143.039062 55.667969 139.886719 55.488281 136.605469 55.472656 C 135.941406 55.464844 135.941406 55.464844 135.265625 55.453125 C 132.652344 55.46875 130.558594 55.804688 128.097656 56.785156 C 128.4375 54.496094 129.414062 53.171875 131.019531 51.527344 C 136.273438 48.417969 141.640625 49.296875 146.792969 52.113281 Z M 146.792969 52.113281 " fill-opacity="1" fill-rule="nonzero"/><path fill="#ffffff" d="M 148.546875 56.785156 C 147.960938 57.953125 147.960938 57.953125 146.671875 58.582031 C 145 59.136719 143.464844 59.386719 141.71875 59.597656 C 135.6875 60.570312 131.84375 63.246094 127.472656 67.421875 C 126.34375 68.46875 126.34375 68.46875 125.761719 68.46875 C 125.925781 64.238281 126.367188 61.351562 129.554688 58.28125 C 134.796875 53.691406 142.214844 55.640625 148.546875 56.785156 Z M 148.546875 56.785156 " fill-opacity="1" fill-rule="nonzero"/><path fill="#ffffff" d="M 142.703125 93.59375 C 143.089844 93.59375 143.476562 93.59375 143.871094 93.59375 C 142.382812 99.742188 139.574219 107.554688 134.523438 111.707031 C 132.992188 112.632812 131.5 113.332031 129.851562 114.042969 C 129.207031 109.332031 131.625 105.320312 134.335938 101.59375 C 136.667969 98.835938 139.359375 96.5 142.121094 94.179688 C 142.3125 93.984375 142.503906 93.792969 142.703125 93.59375 Z M 142.703125 93.59375 " fill-opacity="1" fill-rule="nonzero"/><path fill="#ffffff" d="M 54.480469 48.605469 C 53.667969 50.574219 52.828125 51.410156 51.050781 52.550781 C 47.496094 55.097656 46.359375 58.539062 45.132812 62.628906 C 44.75 62.628906 44.363281 62.628906 43.964844 62.628906 C 43.578125 61.664062 43.195312 60.699219 42.796875 59.707031 C 41.929688 63.464844 41.929688 63.464844 41.042969 67.300781 C 38.984375 64.214844 39.339844 59.816406 39.875 56.203125 C 41.054688 53.066406 43.1875 50.453125 46.21875 48.941406 C 48.914062 48.21875 51.71875 48.441406 54.480469 48.605469 Z M 54.480469 48.605469 " fill-opacity="1" fill-rule="nonzero"/><path fill="#ffffff" d="M 153.21875 41.011719 C 163.105469 43.765625 170.988281 51.449219 178.679688 57.957031 C 180.113281 59.175781 180.113281 59.175781 181.847656 60.289062 C 181.558594 60.871094 181.558594 60.871094 181.265625 61.460938 C 173.09375 58.269531 166.636719 54.050781 160.230469 48.023438 C 159.589844 47.441406 158.949219 46.859375 158.308594 46.28125 C 157.660156 45.691406 157.011719 45.105469 156.359375 44.515625 C 155.894531 44.09375 155.894531 44.09375 155.414062 43.664062 C 154.671875 42.984375 153.945312 42.292969 153.21875 41.59375 C 153.21875 41.402344 153.21875 41.210938 153.21875 41.011719 Z M 153.21875 41.011719 " fill-opacity="1" fill-rule="nonzero"/><path fill="#ffffff" d="M 206.972656 45.101562 C 209.183594 45.839844 209.4375 46.574219 210.476562 48.605469 C 211.339844 51.425781 211.214844 54.300781 211.242188 57.222656 C 211.261719 57.785156 211.277344 58.351562 211.292969 58.929688 C 211.332031 63.132812 210.617188 66.222656 207.878906 69.472656 C 206.972656 70.222656 206.972656 70.222656 205.21875 70.222656 C 205.007812 66.855469 205.273438 63.898438 206.09375 60.621094 C 207.308594 55.464844 207.121094 50.367188 206.972656 45.101562 Z M 206.972656 45.101562 " fill-opacity="1" fill-rule="nonzero"/><path fill="#ffffff" d="M 170.746094 105.277344 C 172.359375 106.890625 172.761719 108.773438 173.414062 110.902344 C 173.542969 111.304688 173.671875 111.703125 173.804688 112.117188 C 176.136719 119.625 175.507812 127.433594 175.164062 135.183594 C 175.144531 135.722656 175.121094 136.261719 175.097656 136.816406 C 175.070312 137.324219 175.046875 137.828125 175.023438 138.351562 C 175 138.804688 174.980469 139.257812 174.957031 139.722656 C 174.835938 140.917969 174.835938 140.917969 174.253906 142.671875 C 172.507812 138.347656 171.871094 134.449219 171.75 129.765625 C 171.742188 129.382812 171.730469 129 171.71875 128.605469 C 171.699219 127.796875 171.675781 126.984375 171.65625 126.171875 C 171.601562 124.078125 171.542969 121.984375 171.480469 119.890625 C 171.46875 119.480469 171.457031 119.074219 171.445312 118.652344 C 171.308594 114.1875 171.0625 109.734375 170.746094 105.277344 Z M 170.746094 105.277344 " fill-opacity="1" fill-rule="nonzero"/><path fill="#ffffff" d="M 146.210938 83.660156 C 145.679688 89.785156 142.554688 94.167969 137.957031 98.121094 C 137.574219 98.433594 137.191406 98.742188 136.800781 99.0625 C 135.632812 100.070312 134.671875 101.140625 133.683594 102.320312 C 133.191406 102.910156 132.695312 103.5 132.1875 104.109375 C 131.996094 104.109375 131.800781 104.109375 131.601562 104.109375 C 132.421875 96.238281 137.003906 90.03125 142.703125 84.828125 C 144.023438 84.035156 144.679688 83.660156 146.210938 83.660156 Z M 146.210938 83.660156 " fill-opacity="1" fill-rule="nonzero"/><path fill="#ffffff" d="M 193.535156 35.753906 C 196.824219 36.550781 198.644531 38.953125 200.542969 41.59375 C 202.789062 45.460938 202.820312 49.949219 202 54.265625 C 201.605469 56.9375 201.652344 59.566406 201.675781 62.261719 C 201.679688 62.804688 201.679688 63.347656 201.683594 63.902344 C 201.691406 65.230469 201.699219 66.558594 201.710938 67.886719 C 199.304688 65.722656 198.90625 63.0625 198.683594 59.941406 C 198.628906 58.269531 198.597656 56.597656 198.574219 54.921875 C 198.371094 48.261719 197.667969 42.386719 193.535156 36.921875 C 193.535156 36.535156 193.535156 36.148438 193.535156 35.753906 Z M 193.535156 35.753906 " fill-opacity="1" fill-rule="nonzero"/><path fill="#ffffff" d="M 173.691406 34.691406 C 177.660156 38.363281 179.785156 43.484375 181.265625 48.605469 C 181.070312 48.992188 180.878906 49.378906 180.679688 49.773438 C 180.390625 49.363281 180.101562 48.953125 179.800781 48.53125 C 175.019531 41.851562 170.554688 35.652344 161.984375 34 C 159.84375 33.753906 157.707031 33.5625 155.558594 33.414062 C 156.140625 32.246094 156.140625 32.246094 157.359375 31.835938 C 163.273438 30.652344 168.738281 30.972656 173.691406 34.691406 Z M 173.691406 34.691406 " fill-opacity="1" fill-rule="nonzero"/><path fill="#ffffff" d="M 59.15625 33.414062 C 59 33.714844 58.84375 34.019531 58.679688 34.328125 C 58.453125 34.796875 58.222656 35.269531 57.988281 35.753906 C 57.675781 36.378906 57.359375 37.003906 57.039062 37.652344 C 55.738281 41.195312 56.082031 44.332031 56.820312 48.023438 C 50.863281 47.910156 50.863281 47.910156 49.113281 46.160156 C 48.558594 44.242188 48.308594 42.992188 48.640625 41.011719 C 49.808594 39.585938 49.808594 39.585938 51.5625 38.089844 C 51.949219 37.734375 52.335938 37.382812 52.734375 37.019531 C 56.710938 33.414062 56.710938 33.414062 59.15625 33.414062 Z M 59.15625 33.414062 " fill-opacity="1" fill-rule="nonzero"/><path fill="#ffffff" d="M 194.703125 114.042969 C 195.28125 114.234375 195.859375 114.429688 196.453125 114.625 C 196.105469 115.300781 195.753906 115.976562 195.394531 116.671875 C 194.554688 118.339844 193.847656 119.984375 193.242188 121.746094 C 192.371094 124.160156 191.226562 126.296875 188.859375 127.480469 C 186.097656 127.8125 184.179688 127.859375 181.8125 126.3125 C 181.4375 125.925781 181.066406 125.539062 180.679688 125.144531 C 180.871094 124.757812 181.066406 124.371094 181.265625 123.976562 C 181.792969 124.023438 182.324219 124.070312 182.871094 124.121094 C 184.757812 124.148438 184.757812 124.148438 185.9375 123.097656 C 186.605469 122.261719 187.265625 121.417969 187.886719 120.542969 C 189.894531 117.738281 191.703125 115.796875 194.703125 114.042969 Z M 194.703125 114.042969 " fill-opacity="1" fill-rule="nonzero"/><path fill="#ffffff" d="M 202.882812 114.042969 C 201.707031 116.410156 200.464844 118.734375 199.191406 121.054688 C 198.972656 121.46875 198.75 121.886719 198.523438 122.3125 C 196.835938 125.371094 195.21875 127.503906 191.78125 128.648438 C 190.417969 128.671875 189.054688 128.675781 187.691406 128.648438 C 188.125 128.324219 188.558594 128 189.003906 127.664062 C 192.375 124.832031 193.449219 122.214844 194.628906 118.039062 C 196.335938 113.726562 198.664062 113.339844 202.882812 114.042969 Z M 202.882812 114.042969 " fill-opacity="1" fill-rule="nonzero"/><path fill="#ffffff" d="M 194.703125 132.15625 C 194.894531 132.15625 195.085938 132.15625 195.285156 132.15625 C 198.707031 151.105469 198.707031 151.105469 196.453125 157.863281 C 196.070312 157.863281 195.683594 157.863281 195.285156 157.863281 C 195.214844 157.339844 195.144531 156.816406 195.070312 156.277344 C 194.410156 151.476562 194.410156 151.476562 193.460938 146.722656 C 192.429688 141.730469 192.171875 136.6875 194.703125 132.15625 Z M 194.703125 132.15625 " fill-opacity="1" fill-rule="nonzero"/><path fill="#ffffff" d="M 203.464844 115.210938 C 204.238281 115.597656 205.007812 115.980469 205.800781 116.378906 C 205.648438 116.679688 205.496094 116.980469 205.335938 117.289062 C 204.785156 118.40625 204.261719 119.539062 203.75 120.671875 C 203.410156 121.394531 203.074219 122.121094 202.734375 122.84375 C 202.574219 123.207031 202.414062 123.574219 202.25 123.949219 C 201.34375 125.851562 200.609375 126.855469 198.835938 128.027344 C 197.113281 128.621094 195.921875 128.808594 194.117188 128.648438 C 194.324219 128.398438 194.527344 128.152344 194.742188 127.894531 C 197.1875 124.792969 198.992188 121.515625 200.769531 117.992188 C 201.710938 116.378906 201.710938 116.378906 203.464844 115.210938 Z M 203.464844 115.210938 " fill-opacity="1" fill-rule="nonzero"/><path fill="#ffffff" d="M 211.644531 50.359375 C 213.742188 52.355469 214.464844 54.03125 214.761719 56.941406 C 214.824219 62.382812 214.253906 65.515625 210.730469 69.640625 C 209.308594 70.808594 209.308594 70.808594 207.554688 70.808594 C 208.136719 69.640625 208.722656 68.476562 209.328125 67.324219 C 209.527344 66.941406 209.726562 66.5625 209.929688 66.171875 C 210.226562 65.601562 210.226562 65.601562 210.535156 65.023438 C 211.875 61.910156 211.714844 58.761719 211.679688 55.433594 C 211.679688 54.945312 211.675781 54.457031 211.671875 53.953125 C 211.667969 52.753906 211.65625 51.558594 211.644531 50.359375 Z M 211.644531 50.359375 " fill-opacity="1" fill-rule="nonzero"/><path fill="#ffffff" d="M 168.410156 58.539062 C 171.945312 58.363281 174.496094 58.816406 177.757812 60.144531 C 178.164062 60.304688 178.570312 60.460938 178.988281 60.625 C 181.777344 61.730469 184.46875 62.953125 187.105469 64.378906 C 187.105469 65.34375 187.105469 66.308594 187.105469 67.300781 C 184.175781 66.960938 181.933594 65.605469 179.402344 64.199219 C 175.820312 62.25 172.265625 60.476562 168.410156 59.121094 C 168.410156 58.929688 168.410156 58.738281 168.410156 58.539062 Z M 168.410156 58.539062 " fill-opacity="1" fill-rule="nonzero"/><path fill="#ffffff" d="M 178.34375 117.546875 C 180.539062 118.53125 180.539062 118.53125 181.410156 119.667969 C 183.128906 121.015625 184.976562 120.574219 187.105469 120.46875 C 186.433594 121.910156 185.910156 122.835938 184.769531 123.976562 C 183.089844 124.230469 183.089844 124.230469 181.265625 123.976562 C 179.160156 122.039062 178.605469 120.359375 178.34375 117.546875 Z M 178.34375 117.546875 " fill-opacity="1" fill-rule="nonzero"/><path fill="#ffffff" d="M 205.21875 118.132812 C 205.605469 118.132812 205.988281 118.132812 206.386719 118.132812 C 206.660156 119.992188 206.683594 121.203125 205.605469 122.78125 C 204.726562 123.796875 203.828125 124.773438 202.882812 125.726562 C 202.496094 125.535156 202.109375 125.34375 201.710938 125.144531 C 202.1875 124.082031 202.660156 123.023438 203.136719 121.964844 C 203.535156 121.082031 203.535156 121.082031 203.9375 120.179688 C 204.632812 118.714844 204.632812 118.714844 205.21875 118.132812 Z M 205.21875 118.132812 " fill-opacity="1" fill-rule="nonzero"/></svg>